<svg width="41" height="41" viewBox="0 0 41 41" fill="none" xmlns="http://www.w3.org/2000/svg">
<rect width="41" height="41" rx="20.5" fill="#EDDFD0"/>
<mask id="mask0_2080_1760" style="mask-type:alpha" maskUnits="userSpaceOnUse" x="9" y="8" width="24" height="25">
<rect x="9" y="8.5" width="24" height="24" fill="#D9D9D9"/>
</mask>
<g mask="url(#mask0_2080_1760)">
<path d="M28.6 29.5L22.3 23.2C21.8 23.6 21.225 23.9167 20.575 24.15C19.925 24.3833 19.2333 24.5 18.5 24.5C16.6833 24.5 15.1458 23.8708 13.8875 22.6125C12.6292 21.3542 12 19.8167 12 18C12 16.1833 12.6292 14.6458 13.8875 13.3875C15.1458 12.1292 16.6833 11.5 18.5 11.5C20.3167 11.5 21.8542 12.1292 23.1125 13.3875C24.3708 14.6458 25 16.1833 25 18C25 18.7333 24.8833 19.425 24.65 20.075C24.4167 20.725 24.1 21.3 23.7 21.8L30 28.1L28.6 29.5ZM18.5 22.5C19.75 22.5 20.8125 22.0625 21.6875 21.1875C22.5625 20.3125 23 19.25 23 18C23 16.75 22.5625 15.6875 21.6875 14.8125C20.8125 13.9375 19.75 13.5 18.5 13.5C17.25 13.5 16.1875 13.9375 15.3125 14.8125C14.4375 15.6875 14 16.75 14 18C14 19.25 14.4375 20.3125 15.3125 21.1875C16.1875 22.0625 17.25 22.5 18.5 22.5Z" fill="#916940"/>
</g>
</svg>
