<svg width="33" height="34" viewBox="0 0 33 34" fill="none" xmlns="http://www.w3.org/2000/svg">
<mask id="mask0_71_630" style="mask-type:alpha" maskUnits="userSpaceOnUse" x="0" y="0" width="33" height="34">
<rect y="0.773926" width="32.4526" height="32.4526" fill="#D9D9D9"/>
</mask>
<g mask="url(#mask0_71_630)">
<path d="M4.88937 27.8179C4.26703 27.8179 3.74739 27.6095 3.33047 27.1925C2.91354 26.7756 2.70508 26.256 2.70508 25.6336V11.0716C2.70508 10.4492 2.91354 9.92959 3.33047 9.51266C3.74739 9.09574 4.26703 8.88727 4.88937 8.88727H8.88874L11.3903 6.1829H18.4113V7.53508H11.9754L9.48165 10.2395H4.88937C4.64668 10.2395 4.44732 10.3175 4.2913 10.4735C4.13528 10.6295 4.05727 10.8289 4.05727 11.0716V25.6336C4.05727 25.8763 4.13528 26.0757 4.2913 26.2317C4.44732 26.3877 4.64668 26.4657 4.88937 26.4657H24.8602C25.1029 26.4657 25.3023 26.3877 25.4583 26.2317C25.6143 26.0757 25.6923 25.8763 25.6923 25.6336V14.8161H27.0445V25.6336C27.0445 26.256 26.836 26.7756 26.4191 27.1925C26.0022 27.6095 25.4825 27.8179 24.8602 27.8179H4.88937ZM25.6923 10.2395V7.53508H22.9879V6.1829H25.6923V3.47852H27.0445V6.1829H29.7489V7.53508H27.0445V10.2395H25.6923ZM14.8748 23.3973C16.2876 23.3973 17.4817 22.9098 18.4568 21.9346C19.4319 20.9595 19.9195 19.7655 19.9195 18.3526C19.9195 16.9397 19.4319 15.7457 18.4568 14.7706C17.4817 13.7955 16.2876 13.3079 14.8748 13.3079C13.4619 13.3079 12.2679 13.7955 11.2928 14.7706C10.3176 15.7457 9.83007 16.9397 9.83007 18.3526C9.83007 19.7655 10.3176 20.9595 11.2928 21.9346C12.2679 22.9098 13.4619 23.3973 14.8748 23.3973ZM14.8748 22.0451C13.8242 22.0451 12.9462 21.6923 12.2406 20.9868C11.535 20.2812 11.1823 19.4031 11.1823 18.3526C11.1823 17.3021 11.535 16.424 12.2406 15.7184C12.9462 15.0129 13.8242 14.6601 14.8748 14.6601C15.9253 14.6601 16.8034 15.0129 17.509 15.7184C18.2145 16.424 18.5673 17.3021 18.5673 18.3526C18.5673 19.4031 18.2145 20.2812 17.509 20.9868C16.8034 21.6923 15.9253 22.0451 14.8748 22.0451Z" fill="#EDDFD0"/>
</g>
</svg>
