<svg width="18" height="18" viewBox="0 0 18 18" fill="none" xmlns="http://www.w3.org/2000/svg">
<path d="M9 17.3335C7.95833 17.3335 6.98264 17.1356 6.07292 16.7397C5.16319 16.3439 4.37153 15.8092 3.69792 15.1356C3.02431 14.462 2.48958 13.6703 2.09375 12.7606C1.69792 11.8509 1.5 10.8752 1.5 9.8335C1.5 8.79183 1.69792 7.81614 2.09375 6.90641C2.48958 5.99669 3.02431 5.20502 3.69792 4.53141C4.37153 3.8578 5.16319 3.32308 6.07292 2.92725C6.98264 2.53141 7.95833 2.3335 9 2.3335C10.0417 2.3335 11.0174 2.53141 11.9271 2.92725C12.8368 3.32308 13.6285 3.8578 14.3021 4.53141C14.9757 5.20502 15.5104 5.99669 15.9063 6.90641C16.3021 7.81614 16.5 8.79183 16.5 9.8335C16.5 10.8752 16.3021 11.8509 15.9063 12.7606C15.5104 13.6703 14.9757 14.462 14.3021 15.1356C13.6285 15.8092 12.8368 16.3439 11.9271 16.7397C11.0174 17.1356 10.0417 17.3335 9 17.3335ZM11.3333 13.3335L12.5 12.1668L9.83333 9.50016V5.66683H8.16667V10.1668L11.3333 13.3335ZM3.66667 0.958496L4.83333 2.12516L1.29167 5.66683L0.125 4.50016L3.66667 0.958496ZM14.3333 0.958496L17.875 4.50016L16.7083 5.66683L13.1667 2.12516L14.3333 0.958496Z" fill="#EDDFD0"/>
</svg>
