<svg width="18" height="18" viewBox="0 0 18 18" fill="none" xmlns="http://www.w3.org/2000/svg">
<mask id="mask0_1_146" style="mask-type:alpha" maskUnits="userSpaceOnUse" x="0" y="0" width="18" height="18">
<rect width="17.1596" height="17.1596" fill="#D9D9D9"/>
</mask>
<g mask="url(#mask0_1_146)">
<path d="M5.08696 7.39716C4.7854 7.39716 4.53125 7.29381 4.32454 7.08711C4.11784 6.88039 4.01449 6.62625 4.01449 6.32469C4.01449 6.0231 4.11784 5.76896 4.32454 5.56226C4.53125 5.35556 4.7854 5.25221 5.08696 5.25221C5.38854 5.25221 5.64269 5.35556 5.84939 5.56226C6.05609 5.76896 6.15944 6.0231 6.15944 6.32469C6.15944 6.62625 6.05609 6.88039 5.84939 7.08711C5.64269 7.29381 5.38854 7.39716 5.08696 7.39716ZM4.01449 15.0145C3.81191 15.0145 3.6421 14.946 3.50506 14.809C3.36802 14.6719 3.2995 14.5021 3.2995 14.2995C2.98188 14.2995 2.70998 14.1864 2.48381 13.9602C2.25762 13.7341 2.14453 13.4622 2.14453 13.1446V10.0096H4.01449V9.47337C4.01449 9.10305 4.14419 8.78818 4.4036 8.52877C4.66302 8.26935 4.97789 8.13964 5.34822 8.13964C5.56821 8.13964 5.77491 8.1873 5.96833 8.28264C6.16174 8.37797 6.33269 8.50905 6.48118 8.67588L7.20718 9.50912C7.30251 9.60445 7.39486 9.69383 7.48424 9.77724C7.57361 9.86066 7.67192 9.93811 7.77917 10.0096H12.5118V4.12748C12.5118 3.86252 12.4167 3.6354 12.2265 3.44614C12.0363 3.25688 11.8081 3.16225 11.5418 3.16225C11.4277 3.16225 11.3195 3.1886 11.2173 3.24131C11.1151 3.29402 11.0204 3.36391 10.9334 3.451L10.0396 4.34473C10.0992 4.54731 10.1111 4.74691 10.0754 4.94353C10.0396 5.14015 9.96813 5.32188 9.86089 5.48871L8.38966 4.00922C8.55649 3.90198 8.73524 3.83346 8.9259 3.80366C9.11656 3.77387 9.30722 3.79473 9.49789 3.86623L10.3916 2.97249C10.5456 2.8185 10.7213 2.69246 10.9186 2.59439C11.1159 2.49631 11.3252 2.44727 11.5466 2.44727C12.0182 2.44727 12.4162 2.60939 12.7404 2.93363C13.0647 3.25789 13.2268 3.65584 13.2268 4.12748V10.0096H15.0143V13.1446C15.0143 13.4622 14.9012 13.7341 14.675 13.9602C14.4488 14.1864 14.1769 14.2995 13.8593 14.2995C13.8593 14.5021 13.7908 14.6719 13.6537 14.809C13.5167 14.946 13.3469 15.0145 13.1443 15.0145H4.01449ZM3.2995 13.5845H13.8593C13.9876 13.5845 14.093 13.5433 14.1755 13.4608C14.258 13.3783 14.2993 13.2729 14.2993 13.1446V10.7246H2.85952V13.1446C2.85952 13.2729 2.90077 13.3783 2.98326 13.4608C3.06576 13.5433 3.17117 13.5845 3.2995 13.5845Z" fill="#EDDFD0"/>
</g>
</svg>
