<svg width="18" height="18" viewBox="0 0 18 18" fill="none" xmlns="http://www.w3.org/2000/svg">
<mask id="mask0_1_131" style="mask-type:alpha" maskUnits="userSpaceOnUse" x="0" y="0" width="18" height="18">
<rect width="17.1596" height="17.1596" fill="#D9D9D9"/>
</mask>
<g mask="url(#mask0_1_131)">
<path d="M3.4095 12.8697H3.02452L2.75227 11.4398H2.14453V9.01566C2.14453 8.69576 2.25705 8.42397 2.48208 8.20031C2.70712 7.97665 2.97959 7.86482 3.2995 7.86482H3.5745V6.15985C3.5745 5.83994 3.68702 5.56747 3.91205 5.34243C4.13709 5.1174 4.40956 5.00488 4.72947 5.00488H12.4293C12.7492 5.00488 13.0217 5.1174 13.2468 5.34243C13.4718 5.56747 13.5843 5.83994 13.5843 6.15985V7.86482H13.8593C14.1792 7.86482 14.4517 7.97734 14.6767 8.20237C14.9018 8.42741 15.0143 8.69989 15.0143 9.01979V11.4398H14.4065L14.1343 12.8697H13.7493L13.477 11.4398H3.68175L3.4095 12.8697ZM8.93689 7.86482H12.8693V6.15985C12.8693 6.03152 12.8281 5.92611 12.7456 5.84361C12.6631 5.76112 12.5577 5.71987 12.4293 5.71987H8.93689V7.86482ZM4.28949 7.86482H8.22191V5.71987H4.72947C4.60114 5.71987 4.49573 5.76112 4.41323 5.84361C4.33074 5.92611 4.28949 6.03152 4.28949 6.15985V7.86482ZM2.85952 10.7248H14.2993V9.01979C14.2993 8.89147 14.258 8.78605 14.1755 8.70356C14.093 8.62106 13.9876 8.57981 13.8593 8.57981H3.2995C3.17117 8.57981 3.06576 8.62106 2.98326 8.70356C2.90077 8.78605 2.85952 8.89147 2.85952 9.01979V10.7248Z" fill="#EDDFD0"/>
</g>
</svg>
