<svg width="33" height="34" viewBox="0 0 33 34" fill="none" xmlns="http://www.w3.org/2000/svg">
<mask id="mask0_71_639" style="mask-type:alpha" maskUnits="userSpaceOnUse" x="0" y="0" width="33" height="34">
<rect y="0.773926" width="32.4526" height="32.4526" fill="#D9D9D9"/>
</mask>
<g mask="url(#mask0_71_639)">
<path d="M9.4401 29.1696C8.70332 29.1696 8.07272 28.9256 7.54832 28.4376C7.02392 27.9496 6.76172 27.3458 6.76172 26.6264V8.56946C6.76172 7.86909 7.00052 7.25455 7.47811 6.72582C7.9557 6.19707 8.54468 5.85988 9.24505 5.71428L21.1157 3.20752V22.9703L9.13586 25.5655C8.86369 25.6279 8.62532 25.7523 8.42075 25.9386C8.21619 26.125 8.11391 26.3542 8.11391 26.6264C8.11391 26.9783 8.24566 27.2648 8.50915 27.4858C8.77267 27.7069 9.08299 27.8174 9.4401 27.8174H24.3402V7.53453H25.6924V29.1696H9.4401ZM11.3384 23.7374L19.7635 21.8989V4.88217L11.3384 6.66862V23.7374ZM9.98618 24.0182V6.94943L9.40109 7.07688C9.03183 7.15661 8.72499 7.33299 8.48055 7.60602C8.23612 7.87908 8.11391 8.20022 8.11391 8.56946V24.6163C8.27861 24.5192 8.4446 24.4365 8.61189 24.368C8.77917 24.2995 8.95383 24.2453 9.13586 24.2055L9.98618 24.0182Z" fill="#EDDFD0"/>
</g>
</svg>
