<svg width="18" height="18" viewBox="0 0 18 18" fill="none" xmlns="http://www.w3.org/2000/svg">
<mask id="mask0_2109_8" style="mask-type:alpha" maskUnits="userSpaceOnUse" x="0" y="0" width="18" height="18">
<rect width="17.1596" height="17.1596" fill="#D9D9D9"/>
</mask>
<g mask="url(#mask0_2109_8)">
<path d="M4.01443 15.0142C3.6853 15.0142 3.41051 14.904 3.19006 14.6835C2.9696 14.4631 2.85938 14.1883 2.85938 13.8591V4.7295C2.85938 4.40037 2.9696 4.12558 3.19006 3.90513C3.41051 3.68467 3.6853 3.57445 4.01443 3.57445H5.27924V1.97949H6.04928V3.57445H11.1643V1.97949H11.8793V3.57445H13.1441C13.4732 3.57445 13.748 3.68467 13.9685 3.90513C14.1889 4.12558 14.2991 4.40037 14.2991 4.7295V13.8591C14.2991 14.1883 14.1889 14.4631 13.9685 14.6835C13.748 14.904 13.4732 15.0142 13.1441 15.0142H4.01443ZM4.01443 14.2992H13.1441C13.2542 14.2992 13.3551 14.2534 13.4467 14.1618C13.5383 14.0701 13.5842 13.9693 13.5842 13.8591V7.58944H3.57436V13.8591C3.57436 13.9693 3.62018 14.0701 3.71182 14.1618C3.80345 14.2534 3.90433 14.2992 4.01443 14.2992ZM3.57436 6.87428H13.5842V4.7295C13.5842 4.6194 13.5383 4.51852 13.4467 4.42689C13.3551 4.33525 13.2542 4.28943 13.1441 4.28943H4.01443C3.90433 4.28943 3.80345 4.33525 3.71182 4.42689C3.62018 4.51852 3.57436 4.6194 3.57436 4.7295V6.87428ZM8.57926 10.1192C8.43173 10.1192 8.30315 10.0645 8.19352 9.95497C8.08401 9.84546 8.02925 9.71688 8.02925 9.56924C8.02925 9.42171 8.08401 9.29319 8.19352 9.18368C8.30315 9.07417 8.43173 9.01941 8.57926 9.01941C8.72678 9.01941 8.85536 9.07417 8.96499 9.18368C9.0745 9.29319 9.12926 9.42171 9.12926 9.56924C9.12926 9.71688 9.0745 9.84546 8.96499 9.95497C8.85536 10.0645 8.72678 10.1192 8.57926 10.1192ZM5.71932 10.1192C5.57179 10.1192 5.44321 10.0645 5.33358 9.95497C5.22407 9.84546 5.16931 9.71688 5.16931 9.56924C5.16931 9.42171 5.22407 9.29319 5.33358 9.18368C5.44321 9.07417 5.57179 9.01941 5.71932 9.01941C5.86684 9.01941 5.99542 9.07417 6.10505 9.18368C6.21456 9.29319 6.26932 9.42171 6.26932 9.56924C6.26932 9.71688 6.21456 9.84546 6.10505 9.95497C5.99542 10.0645 5.86684 10.1192 5.71932 10.1192ZM11.4392 10.1192C11.2917 10.1192 11.1631 10.0645 11.0535 9.95497C10.944 9.84546 10.8892 9.71688 10.8892 9.56924C10.8892 9.42171 10.944 9.29319 11.0535 9.18368C11.1631 9.07417 11.2917 9.01941 11.4392 9.01941C11.5867 9.01941 11.7153 9.07417 11.8249 9.18368C11.9344 9.29319 11.9892 9.42171 11.9892 9.56924C11.9892 9.71688 11.9344 9.84546 11.8249 9.95497C11.7153 10.0645 11.5867 10.1192 11.4392 10.1192ZM8.57926 12.8693C8.43173 12.8693 8.30315 12.8145 8.19352 12.705C8.08401 12.5955 8.02925 12.4669 8.02925 12.3193C8.02925 12.1717 8.08401 12.0431 8.19352 11.9335C8.30315 11.824 8.43173 11.7692 8.57926 11.7692C8.72678 11.7692 8.85536 11.824 8.96499 11.9335C9.0745 12.0431 9.12926 12.1717 9.12926 12.3193C9.12926 12.4669 9.0745 12.5955 8.96499 12.705C8.85536 12.8145 8.72678 12.8693 8.57926 12.8693ZM5.71932 12.8693C5.57179 12.8693 5.44321 12.8145 5.33358 12.705C5.22407 12.5955 5.16931 12.4669 5.16931 12.3193C5.16931 12.1717 5.22407 12.0431 5.33358 11.9335C5.44321 11.824 5.57179 11.7692 5.71932 11.7692C5.86684 11.7692 5.99542 11.824 6.10505 11.9335C6.21456 12.0431 6.26932 12.1717 6.26932 12.3193C6.26932 12.4669 6.21456 12.5955 6.10505 12.705C5.99542 12.8145 5.86684 12.8693 5.71932 12.8693ZM11.4392 12.8693C11.2917 12.8693 11.1631 12.8145 11.0535 12.705C10.944 12.5955 10.8892 12.4669 10.8892 12.3193C10.8892 12.1717 10.944 12.0431 11.0535 11.9335C11.1631 11.824 11.2917 11.7692 11.4392 11.7692C11.5867 11.7692 11.7153 11.824 11.8249 11.9335C11.9344 12.0431 11.9892 12.1717 11.9892 12.3193C11.9892 12.4669 11.9344 12.5955 11.8249 12.705C11.7153 12.8145 11.5867 12.8693 11.4392 12.8693Z" fill="#EDDFD0"/>
</g>
</svg>
