<svg width="20" height="20" viewBox="0 0 20 20" fill="none" xmlns="http://www.w3.org/2000/svg">
<mask id="mask0_71_614" style="mask-type:alpha" maskUnits="userSpaceOnUse" x="0" y="0" width="21" height="20">
<rect x="0.078125" width="19.9229" height="19.9229" fill="#D9D9D9"/>
</mask>
<g mask="url(#mask0_71_614)">
<path d="M10.0397 13.8889C10.907 13.8889 11.64 13.5895 12.2387 12.9909C12.8373 12.3922 13.1367 11.6592 13.1367 10.7919C13.1367 9.92451 12.8373 9.1915 12.2387 8.59284C11.64 7.9942 10.907 7.69488 10.0397 7.69488C9.17231 7.69488 8.4393 7.9942 7.84065 8.59284C7.24201 9.1915 6.94269 9.92451 6.94269 10.7919C6.94269 11.6592 7.24201 12.3922 7.84065 12.9909C8.4393 13.5895 9.17231 13.8889 10.0397 13.8889ZM10.0397 13.0587C9.39474 13.0587 8.8557 12.8422 8.42254 12.409C7.98938 11.9758 7.77281 11.4368 7.77281 10.7919C7.77281 10.1469 7.98938 9.60789 8.42254 9.17474C8.8557 8.74158 9.39474 8.525 10.0397 8.525C10.6846 8.525 11.2236 8.74158 11.6568 9.17474C12.09 9.60789 12.3065 10.1469 12.3065 10.7919C12.3065 11.4368 12.09 11.9758 11.6568 12.409C11.2236 12.8422 10.6846 13.0587 10.0397 13.0587ZM3.90956 16.6027C3.52749 16.6027 3.20849 16.4747 2.95253 16.2188C2.69658 15.9628 2.5686 15.6438 2.5686 15.2618V6.32199C2.5686 5.93993 2.69658 5.62092 2.95253 5.36497C3.20849 5.10902 3.52749 4.98104 3.90956 4.98104H6.3648L7.90052 3.3208H12.1788L13.7145 4.98104H16.1698C16.5519 4.98104 16.8709 5.10902 17.1268 5.36497C17.3828 5.62092 17.5107 5.93993 17.5107 6.32199V15.2618C17.5107 15.6438 17.3828 15.9628 17.1268 16.2188C16.8709 16.4747 16.5519 16.6027 16.1698 16.6027H3.90956ZM3.90956 15.7726H16.1698C16.3188 15.7726 16.4412 15.7247 16.537 15.6289C16.6327 15.5331 16.6806 15.4107 16.6806 15.2618V6.32199C16.6806 6.173 16.6327 6.05061 16.537 5.95483C16.4412 5.85905 16.3188 5.81116 16.1698 5.81116H13.3506L11.8196 4.15092H8.25971L6.72879 5.81116H3.90956C3.76056 5.81116 3.63818 5.85905 3.5424 5.95483C3.44661 6.05061 3.39872 6.173 3.39872 6.32199V15.2618C3.39872 15.4107 3.44661 15.5331 3.5424 15.6289C3.63818 15.7247 3.76056 15.7726 3.90956 15.7726Z" fill="#EEDFBC"/>
</g>
</svg>
