<svg width="16" height="16" viewBox="0 0 16 16" fill="none" xmlns="http://www.w3.org/2000/svg">
<mask id="mask0_71_666" style="mask-type:alpha" maskUnits="userSpaceOnUse" x="0" y="0" width="16" height="16">
<rect width="15.9689" height="15.9689" fill="#D9D9D9"/>
</mask>
<g mask="url(#mask0_71_666)">
<path d="M3.32749 13.9727C3.13897 13.9727 2.98095 13.909 2.85342 13.7815C2.72589 13.6539 2.66212 13.4959 2.66212 13.3074V12.642C2.10765 12.642 1.63635 12.4479 1.24821 12.0598C0.860082 11.6717 0.666016 11.2004 0.666016 10.6459V7.31905C0.666016 6.9531 0.796317 6.63982 1.05692 6.37922C1.31752 6.11861 1.6308 5.98831 1.99675 5.98831C2.36271 5.98831 2.67599 6.11861 2.93659 6.37922C3.19719 6.63982 3.32749 6.9531 3.32749 7.31905V9.98053H12.6427V7.31905C12.6427 6.9531 12.773 6.63982 13.0336 6.37922C13.2942 6.11861 13.6075 5.98831 13.9734 5.98831C14.3394 5.98831 14.6526 6.11861 14.9132 6.37922C15.1738 6.63982 15.3041 6.9531 15.3041 7.31905V10.6459C15.3041 11.2004 15.1101 11.6717 14.7219 12.0598C14.3338 12.4479 13.8625 12.642 13.308 12.642V13.3074C13.308 13.4959 13.2443 13.6539 13.1167 13.7815C12.9892 13.909 12.8312 13.9727 12.6427 13.9727C12.4541 13.9727 12.2961 13.909 12.1686 13.7815C12.0411 13.6539 11.9773 13.4959 11.9773 13.3074V12.642H3.99286V13.3074C3.99286 13.4959 3.9291 13.6539 3.80157 13.7815C3.67404 13.909 3.51602 13.9727 3.32749 13.9727ZM4.65823 8.64979V7.31905C4.65823 6.70913 4.47248 6.16297 4.10099 5.68058C3.72949 5.19819 3.24987 4.85718 2.66212 4.65757V3.9922C2.66212 3.43773 2.85619 2.96642 3.24432 2.57829C3.63246 2.19016 4.10376 1.99609 4.65823 1.99609H11.3119C11.8664 1.99609 12.3377 2.19016 12.7258 2.57829C13.114 2.96642 13.308 3.43773 13.308 3.9922V4.65757C12.7092 4.81283 12.2268 5.13719 11.8609 5.63068C11.4949 6.12416 11.3119 6.68695 11.3119 7.31905V8.64979H4.65823Z" fill="#FFF7E5"/>
</g>
</svg>
