<svg width="16" height="16" viewBox="0 0 16 16" fill="none" xmlns="http://www.w3.org/2000/svg">
<mask id="mask0_71_669" style="mask-type:alpha" maskUnits="userSpaceOnUse" x="0" y="0" width="16" height="16">
<rect width="15.9689" height="15.9689" fill="#D9D9D9"/>
</mask>
<g mask="url(#mask0_71_669)">
<path d="M1.99545 13.307C1.80693 13.307 1.6489 13.2433 1.52137 13.1158C1.39384 12.9882 1.33008 12.8302 1.33008 12.6417C1.33008 12.5308 1.35226 12.4282 1.39662 12.3339C1.44097 12.2397 1.50751 12.1648 1.59623 12.1094L7.3184 7.81775V6.65335C7.3184 6.46483 7.38494 6.3068 7.51802 6.17927C7.65109 6.05175 7.81189 5.98798 8.00041 5.98798C8.27765 5.98798 8.51053 5.88818 8.69905 5.68856C8.88757 5.48895 8.98183 5.25053 8.98183 4.97329C8.98183 4.69605 8.8848 4.46318 8.69073 4.27465C8.49666 4.08613 8.26101 3.99187 7.98377 3.99187C7.70654 3.99187 7.47089 4.08891 7.27682 4.28297C7.08275 4.47704 6.98572 4.71269 6.98572 4.98993H5.65498C5.65498 4.34674 5.88232 3.79781 6.33698 3.34314C6.79165 2.88847 7.34058 2.66113 7.98377 2.66113C8.62697 2.66113 9.1759 2.8857 9.63056 3.33482C10.0852 3.78394 10.3126 4.3301 10.3126 4.97329C10.3126 5.4945 10.1601 5.96026 9.85513 6.37057C9.55017 6.78088 9.14817 7.06366 8.64914 7.21891V7.81775L14.3713 12.1094C14.46 12.1648 14.5266 12.2397 14.5709 12.3339C14.6153 12.4282 14.6375 12.5308 14.6375 12.6417C14.6375 12.8302 14.5737 12.9882 14.4462 13.1158C14.3186 13.2433 14.1606 13.307 13.9721 13.307H1.99545ZM3.99156 11.9763H11.976L7.98377 8.98214L3.99156 11.9763Z" fill="#FFF7E5"/>
</g>
</svg>
