<svg width="18" height="18" viewBox="0 0 18 18" fill="none" xmlns="http://www.w3.org/2000/svg">
<mask id="mask0_1_161" style="mask-type:alpha" maskUnits="userSpaceOnUse" x="0" y="0" width="18" height="18">
<rect width="17.1596" height="17.1596" fill="#D9D9D9"/>
</mask>
<g mask="url(#mask0_1_161)">
<path d="M4.01434 14.3001C3.68527 14.3001 3.41051 14.1899 3.19006 13.9694C2.9696 13.749 2.85938 13.4742 2.85938 13.1451V10.7252H3.57436V13.1451C3.57436 13.2551 3.62019 13.356 3.71185 13.4476C3.80352 13.5393 3.90436 13.5851 4.01434 13.5851H6.4343V14.3001H4.01434ZM10.7242 14.3001V13.5851H13.1442C13.2542 13.5851 13.355 13.5393 13.4467 13.4476C13.5383 13.356 13.5842 13.2551 13.5842 13.1451V10.7252H14.2991V13.1451C14.2991 13.4742 14.1889 13.749 13.9685 13.9694C13.748 14.1899 13.4732 14.3001 13.1442 14.3001H10.7242ZM2.85938 6.43528V4.01532C2.85938 3.68625 2.9696 3.41149 3.19006 3.19103C3.41051 2.97058 3.68527 2.86035 4.01434 2.86035H6.4343V3.57534H4.01434C3.90436 3.57534 3.80352 3.62117 3.71185 3.71283C3.62019 3.8045 3.57436 3.90533 3.57436 4.01532V6.43528H2.85938ZM13.5842 6.43528V4.01532C13.5842 3.90533 13.5383 3.8045 13.4467 3.71283C13.355 3.62117 13.2542 3.57534 13.1442 3.57534H10.7242V2.86035H13.1442C13.4732 2.86035 13.748 2.97058 13.9685 3.19103C14.1889 3.41149 14.2991 3.68625 14.2991 4.01532V6.43528H13.5842Z" fill="#EDDFD0"/>
</g>
</svg>
