<svg width="33" height="34" viewBox="0 0 33 34" fill="none" xmlns="http://www.w3.org/2000/svg">
<mask id="mask0_1897_6504" style="mask-type:alpha" maskUnits="userSpaceOnUse" x="0" y="0" width="33" height="34">
<rect y="0.773438" width="32.4526" height="32.4526" fill="#D9D9D9"/>
</mask>
<g mask="url(#mask0_1897_6504)">
<path d="M11.5457 26.1008L10.5887 25.1438L13.4753 22.242C10.8505 21.8936 8.62456 21.2391 6.79753 20.2786C4.97027 19.3181 4.05664 18.2251 4.05664 16.9996C4.05664 15.5451 5.23676 14.28 7.59701 13.2043C9.95726 12.1287 12.8337 11.5908 16.2263 11.5908C19.619 11.5908 22.4954 12.1287 24.8557 13.2043C27.2159 14.28 28.3961 15.5451 28.3961 16.9996C28.3961 17.9808 27.781 18.9109 26.551 19.7898C25.3212 20.6687 23.6825 21.3439 21.6351 21.8154V20.4477C23.3704 19.9969 24.7057 19.4392 25.641 18.7743C26.5762 18.1095 27.0439 17.5179 27.0439 16.9996C27.0439 16.2264 26.0804 15.357 24.1536 14.3915C22.2267 13.4259 19.5843 12.943 16.2263 12.943C12.8684 12.943 10.226 13.4259 8.29914 14.3915C6.37227 15.357 5.40883 16.2264 5.40883 16.9996C5.40883 17.6446 6.15682 18.3662 7.65279 19.1644C9.14899 19.9627 11.043 20.5273 13.3347 20.8584L10.5887 18.1124L11.5457 17.1558L16.0184 21.6281L11.5457 26.1008Z" fill="#EDDFD0"/>
</g>
</svg>
