<svg width="16" height="16" viewBox="0 0 16 16" fill="none" xmlns="http://www.w3.org/2000/svg">
<mask id="mask0_71_660" style="mask-type:alpha" maskUnits="userSpaceOnUse" x="0" y="0" width="16" height="16">
<rect width="15.9689" height="15.9689" fill="#D9D9D9"/>
</mask>
<g mask="url(#mask0_71_660)">
<path d="M1.33008 9.98086V8.65012H4.65693V7.98475H3.32619C3.13767 7.98475 2.97964 7.92099 2.85211 7.79346C2.72458 7.66593 2.66082 7.5079 2.66082 7.31938C2.66082 7.13086 2.72458 6.97284 2.85211 6.84531C2.97964 6.71778 3.13767 6.65401 3.32619 6.65401H4.65693C5.02288 6.65401 5.33616 6.78431 5.59676 7.04492C5.85736 7.30552 5.98767 7.6188 5.98767 7.98475V8.65012H7.3184V4.05907C7.3184 3.2939 7.58455 2.64793 8.11685 2.12118C8.64914 1.59443 9.29788 1.33105 10.0631 1.33105C10.5732 1.33105 11.0445 1.46413 11.477 1.73028C11.9095 1.99642 12.2421 2.36238 12.475 2.82814L13.2402 4.35849L12.0425 4.95732L11.2774 3.42697C11.1554 3.19409 10.9835 3.00834 10.7617 2.86972C10.5399 2.7311 10.3015 2.66179 10.0464 2.66179C9.65829 2.66179 9.32838 2.79764 9.05668 3.06933C8.78499 3.34103 8.64914 3.67094 8.64914 4.05907V8.65012H9.97988V7.98475C9.97988 7.6188 10.1102 7.30552 10.3708 7.04492C10.6314 6.78431 10.9447 6.65401 11.3106 6.65401H12.6414C12.8299 6.65401 12.9879 6.71778 13.1154 6.84531C13.243 6.97284 13.3067 7.13086 13.3067 7.31938C13.3067 7.5079 13.243 7.66593 13.1154 7.79346C12.9879 7.92099 12.8299 7.98475 12.6414 7.98475H11.3106V8.65012H14.6375V9.98086H1.33008ZM3.99156 13.9731C3.6256 13.9731 3.31233 13.8428 3.05172 13.5822C2.79112 13.3216 2.66082 13.0083 2.66082 12.6423V10.6462H13.3067V12.6423C13.3067 13.0083 13.1764 13.3216 12.9158 13.5822C12.6552 13.8428 12.3419 13.9731 11.976 13.9731H3.99156Z" fill="#FFF7E5"/>
</g>
</svg>
