<svg width="16" height="16" viewBox="0 0 16 16" fill="none" xmlns="http://www.w3.org/2000/svg">
<mask id="mask0_71_651" style="mask-type:alpha" maskUnits="userSpaceOnUse" x="0" y="0" width="16" height="16">
<rect width="15.9689" height="15.9689" fill="#D9D9D9"/>
</mask>
<g mask="url(#mask0_71_651)">
<path d="M2.66211 9.31516C2.66211 8.15076 2.93935 7.1139 3.49382 6.20456C4.0483 5.29522 4.65822 4.53004 5.32359 3.90903C5.98896 3.28802 6.59888 2.81394 7.15335 2.4868L7.98507 1.99609V4.19181C7.98507 4.60212 8.12368 4.92649 8.40092 5.16492C8.67816 5.40334 8.98867 5.52255 9.33244 5.52255C9.52096 5.52255 9.70117 5.48374 9.87305 5.40611C10.0449 5.32849 10.203 5.20096 10.3471 5.02353L10.6465 4.65757C11.445 5.12333 12.0882 5.76929 12.5761 6.59546C13.0641 7.42163 13.308 8.3282 13.308 9.31516C13.308 10.291 13.0696 11.181 12.5928 11.985C12.1159 12.7889 11.4893 13.4238 10.7131 13.8896C10.9016 13.6234 11.0485 13.3323 11.1539 13.0163C11.2592 12.7002 11.3119 12.3648 11.3119 12.0099C11.3119 11.5663 11.2287 11.1477 11.0624 10.754C10.8961 10.3603 10.6576 10.0083 10.3471 9.69775L7.98507 7.38559L5.63964 9.69775C5.31804 10.0193 5.07407 10.3742 4.90773 10.7623C4.74139 11.1505 4.65822 11.5663 4.65822 12.0099C4.65822 12.3648 4.71089 12.7002 4.81624 13.0163C4.92159 13.3323 5.06853 13.6234 5.25705 13.8896C4.48079 13.4238 3.85423 12.7889 3.37738 11.985C2.90053 11.181 2.66211 10.291 2.66211 9.31516ZM7.98507 9.24862L9.39898 10.6293C9.5875 10.8178 9.73166 11.0285 9.83147 11.2614C9.93127 11.4942 9.98118 11.7438 9.98118 12.0099C9.98118 12.5533 9.78711 13.0163 9.39898 13.3989C9.01084 13.7815 8.53954 13.9727 7.98507 13.9727C7.43059 13.9727 6.95929 13.7815 6.57116 13.3989C6.18302 13.0163 5.98896 12.5533 5.98896 12.0099C5.98896 11.7548 6.03886 11.5081 6.13867 11.2697C6.23847 11.0313 6.38263 10.8178 6.57116 10.6293L7.98507 9.24862Z" fill="#FFF7E5"/>
</g>
</svg>
