<svg width="16" height="16" viewBox="0 0 16 16" fill="none" xmlns="http://www.w3.org/2000/svg">
<mask id="mask0_71_672" style="mask-type:alpha" maskUnits="userSpaceOnUse" x="0" y="0" width="16" height="16">
<rect width="15.9689" height="15.9689" fill="#D9D9D9"/>
</mask>
<g mask="url(#mask0_71_672)">
<path d="M0.666016 8.64947V7.31874H4.65823V8.64947H0.666016ZM5.15726 6.0878L3.75998 4.69053L4.6915 3.75901L6.08878 5.15628L5.15726 6.0878ZM7.31971 4.65726V0.665039H8.65045V4.65726H7.31971ZM10.8129 6.0878L9.88138 5.15628L11.2787 3.75901L12.2102 4.69053L10.8129 6.0878ZM11.3119 8.64947V7.31874H15.3041V8.64947H11.3119ZM7.98508 9.98021C7.43061 9.98021 6.9593 9.78615 6.57117 9.39802C6.18304 9.00988 5.98897 8.53858 5.98897 7.98411C5.98897 7.42963 6.18304 6.95833 6.57117 6.57019C6.9593 6.18206 7.43061 5.988 7.98508 5.988C8.53956 5.988 9.01086 6.18206 9.39899 6.57019C9.78712 6.95833 9.98119 7.42963 9.98119 7.98411C9.98119 8.53858 9.78712 9.00988 9.39899 9.39802C9.01086 9.78615 8.53956 9.98021 7.98508 9.98021ZM11.2787 12.2092L9.88138 10.8119L10.8129 9.88041L12.2102 11.2777L11.2787 12.2092ZM4.6915 12.2092L3.75998 11.2777L5.15726 9.88041L6.08878 10.8119L4.6915 12.2092ZM7.31971 15.3032V11.311H8.65045V15.3032H7.31971Z" fill="#FFF7E5"/>
</g>
</svg>
