<svg width="33" height="34" viewBox="0 0 33 34" fill="none" xmlns="http://www.w3.org/2000/svg">
<mask id="mask0_71_633" style="mask-type:alpha" maskUnits="userSpaceOnUse" x="0" y="0" width="33" height="34">
<rect y="0.773926" width="32.4526" height="32.4526" fill="#D9D9D9"/>
</mask>
<g mask="url(#mask0_71_633)">
<path d="M15.5502 26.4655V15.6479H9.59535C9.2313 15.6479 8.93572 15.498 8.70862 15.1981C8.48152 14.8982 8.42691 14.5749 8.5448 14.2281L10.5835 7.71161C10.7291 7.25222 10.9909 6.88254 11.3688 6.60257C11.7467 6.3226 12.1766 6.18262 12.6586 6.18262H19.794C20.2759 6.18262 20.7059 6.3226 21.0838 6.60257C21.4617 6.88254 21.7235 7.25222 21.8691 7.71161L23.9078 14.2281C24.0257 14.5749 23.9711 14.8982 23.744 15.1981C23.5169 15.498 23.2213 15.6479 22.8572 15.6479H16.9024V26.4655H15.5502ZM9.93861 14.2958H22.514L20.6001 8.13288C20.5481 7.95953 20.4484 7.81651 20.301 7.70383C20.1537 7.59115 19.9847 7.53481 19.794 7.53481H12.6586C12.4679 7.53481 12.2989 7.59115 12.1515 7.70383C12.0042 7.81651 11.9045 7.95953 11.8525 8.13288L9.93861 14.2958ZM11.4936 29.1698V27.8177H20.959V29.1698H11.4936Z" fill="#EDDFD0"/>
</g>
</svg>
