<svg width="20" height="20" viewBox="0 0 20 20" fill="none" xmlns="http://www.w3.org/2000/svg">
<path d="M0 10.0012C0.0293625 8.58158 0.0440438 7.16105 0.0931342 5.74235C0.133049 4.5904 0.383089 3.48482 1.02356 2.50505C1.87278 1.20526 3.09912 0.472037 4.60946 0.195184C5.71055 -0.00637256 6.82678 0.00602384 7.93981 0.00280996C9.72496 -0.00224043 11.5101 -0.00132218 13.2953 0.0193385C14.2096 0.0298984 15.1267 0.0666285 16.014 0.329249C18.1552 0.963761 19.4155 2.41001 19.8082 4.58443C19.9564 5.40489 19.9936 6.25427 19.9972 7.0908C20.0078 9.47275 19.9922 11.8552 19.9518 14.2366C19.9321 15.4037 19.6646 16.5245 19.0104 17.5157C18.0992 18.8963 16.7811 19.6585 15.1657 19.8398C14.0321 19.967 12.8833 19.9927 11.7409 19.9982C9.75799 20.0074 7.77418 19.9831 5.79176 19.9395C4.62505 19.9137 3.50653 19.6497 2.516 18.9959C1.22772 18.1456 0.498245 16.9239 0.226642 15.4198C-0.00137636 14.1577 0.0467965 12.879 0.0279861 11.6054C0.0201867 11.071 0.0266098 10.5365 0.0266098 10.0017C0.0178928 10.0017 0.008717 10.0017 0 10.0012ZM18.2405 10.0007C18.2318 10.0007 18.2236 10.0007 18.2148 10.0007C18.2148 9.1532 18.2382 8.30473 18.2084 7.45856C18.1777 6.58301 18.1621 5.69827 18.0199 4.83695C17.7905 3.45039 16.9802 2.48852 15.6076 2.1001C15.0565 1.94446 14.4684 1.86732 13.8949 1.85538C11.9198 1.81314 9.9438 1.79248 7.96871 1.80901C6.93414 1.81774 5.88948 1.84528 4.86959 1.99955C3.48175 2.20937 2.52196 3.03304 2.13062 4.40583C1.97555 4.94944 1.89572 5.53069 1.88471 6.09679C1.84387 8.27213 1.82782 10.4484 1.83974 12.6237C1.84433 13.4681 1.88654 14.3225 2.02326 15.1535C2.25174 16.541 3.05645 17.5047 4.42777 17.8973C4.97786 18.0547 5.56649 18.1337 6.13952 18.1461C8.10681 18.1893 10.075 18.2095 12.0428 18.1929C13.0847 18.1842 14.1371 18.1562 15.1653 18.0038C16.5536 17.7981 17.5166 16.9785 17.9107 15.6058C18.0667 15.0622 18.1378 14.4823 18.1612 13.9157C18.2158 12.6118 18.2171 11.3056 18.2405 10.0003V10.0007Z" fill="#EDDFD0"/>
<path d="M10.0245 15.1375C7.18136 15.1384 4.88879 12.8427 4.89063 9.99708C4.89246 7.15187 7.18733 4.86083 10.0318 4.86451C12.8653 4.86864 15.151 7.15647 15.1542 9.99295C15.1579 12.8391 12.8667 15.1365 10.0245 15.1375ZM13.3594 10.0044C13.3617 8.16838 11.8606 6.66336 10.0259 6.66153C8.1907 6.65969 6.68724 8.16149 6.68541 9.99754C6.68357 11.8336 8.18473 13.3391 10.019 13.3414C11.8532 13.3432 13.3576 11.8409 13.3594 10.0044Z" fill="#EDDFD0"/>
<path d="M16.5646 4.662C16.5614 5.31396 16.0223 5.85389 15.369 5.85894C14.7088 5.86399 14.1573 5.31212 14.1619 4.65144C14.1669 3.98754 14.7198 3.44394 15.3791 3.4545C16.0305 3.46506 16.5673 4.01142 16.5646 4.66154V4.662Z" fill="#EDDFD0"/>
</svg>
