<svg width="13" height="13" viewBox="0 0 13 13" fill="none" xmlns="http://www.w3.org/2000/svg">
<path d="M0.2178 4.27778H2.84233V12.8778H0.2178V4.27778ZM1.52462 0C2.36316 0 3.03835 0.7 3.03835 1.54444C3.03835 2.38889 2.36316 3.1 1.52462 3.1C0.686081 3.1 0 2.4 0 1.54444C0 0.688889 0.675191 0 1.52462 0Z" fill="#EDDFD0"/>
<path d="M4.48633 4.27752H7.00195V5.4553H7.03462C7.3831 4.77752 8.24343 4.06641 9.51757 4.06641C12.1748 4.06641 12.6539 5.84418 12.6539 8.16641V12.8775H10.0403V8.69974C10.0403 7.69974 10.0185 6.42196 8.67904 6.42196C7.33955 6.42196 7.11085 7.51085 7.11085 8.63307V12.8886H4.49721V4.27752H4.48633Z" fill="#EDDFD0"/>
</svg>
