<svg width="14" height="18" viewBox="0 0 14 18" fill="none" xmlns="http://www.w3.org/2000/svg">
<path d="M6.9987 8.99984C7.45703 8.99984 7.84939 8.83664 8.17578 8.51025C8.50217 8.18387 8.66536 7.7915 8.66536 7.33317C8.66536 6.87484 8.50217 6.48248 8.17578 6.15609C7.84939 5.8297 7.45703 5.6665 6.9987 5.6665C6.54036 5.6665 6.148 5.8297 5.82161 6.15609C5.49523 6.48248 5.33203 6.87484 5.33203 7.33317C5.33203 7.7915 5.49523 8.18387 5.82161 8.51025C6.148 8.83664 6.54036 8.99984 6.9987 8.99984ZM6.9987 17.3332C4.76259 15.4304 3.09245 13.663 1.98828 12.0311C0.884115 10.3991 0.332031 8.88873 0.332031 7.49984C0.332031 5.4165 1.00217 3.75678 2.34245 2.52067C3.68273 1.28456 5.23481 0.666504 6.9987 0.666504C8.76259 0.666504 10.3147 1.28456 11.6549 2.52067C12.9952 3.75678 13.6654 5.4165 13.6654 7.49984C13.6654 8.88873 13.1133 10.3991 12.0091 12.0311C10.9049 13.663 9.23481 15.4304 6.9987 17.3332Z" fill="#EDDFD0"/>
</svg>
