<svg width="33" height="34" viewBox="0 0 33 34" fill="none" xmlns="http://www.w3.org/2000/svg">
<mask id="mask0_71_636" style="mask-type:alpha" maskUnits="userSpaceOnUse" x="0" y="0" width="33" height="34">
<rect y="0.773682" width="32.4526" height="32.4526" fill="#D9D9D9"/>
</mask>
<g mask="url(#mask0_71_636)">
<path d="M13.522 21.8366L21.063 16.9999L13.522 12.1632V21.8366ZM16.2309 29.1696C14.548 29.1696 12.9658 28.8503 11.4844 28.2116C10.0029 27.5729 8.71418 26.7062 7.61827 25.6113C6.52239 24.5164 5.65482 23.229 5.01555 21.7489C4.37628 20.2688 4.05664 18.6873 4.05664 17.0044C4.05664 15.3216 4.37597 13.7394 5.01463 12.2579C5.65332 10.7764 6.52009 9.48774 7.61496 8.39183C8.70983 7.29595 9.99731 6.42838 11.4774 5.78911C12.9575 5.14984 14.539 4.8302 16.2218 4.8302C17.9047 4.8302 19.4869 5.14953 20.9683 5.78819C22.4498 6.42688 23.7385 7.29365 24.8344 8.38852C25.9303 9.48339 26.7979 10.7709 27.4372 12.251C28.0764 13.7311 28.3961 15.3125 28.3961 16.9954C28.3961 18.6782 28.0767 20.2604 27.4381 21.7419C26.7994 23.2234 25.9326 24.5121 24.8377 25.608C23.7429 26.7039 22.4554 27.5714 20.9753 28.2107C19.4952 28.85 17.9137 29.1696 16.2309 29.1696ZM16.2263 27.8174C19.2462 27.8174 21.8041 26.7695 23.9 24.6736C25.9959 22.5777 27.0439 20.0198 27.0439 16.9999C27.0439 13.98 25.9959 11.4221 23.9 9.32623C21.8041 7.23034 19.2462 6.18239 16.2263 6.18239C13.2065 6.18239 10.6486 7.23034 8.55267 9.32623C6.45678 11.4221 5.40883 13.98 5.40883 16.9999C5.40883 20.0198 6.45678 22.5777 8.55267 24.6736C10.6486 26.7695 13.2065 27.8174 16.2263 27.8174Z" fill="#EDDFD0"/>
</g>
</svg>
