<svg width="145" height="145" viewBox="0 0 145 145" fill="none" xmlns="http://www.w3.org/2000/svg">
<g clip-path="url(#clip0_1897_6517)">
<path d="M58.0652 57.9354C58.1818 57.956 58.2983 57.9946 58.4155 57.9946C60.0862 57.9983 61.7563 57.9976 63.427 57.9952C63.5248 57.9952 63.6233 57.9753 63.7791 57.9584V52.2206C64.4677 52.1789 65.1037 52.2037 65.7379 52.1994C66.3619 52.1952 66.9858 52.1982 67.6097 52.1982H69.6005V51.4927C69.6005 50.0031 69.5993 48.5136 69.6024 47.0246C69.6024 46.8041 69.6235 46.5836 69.635 46.3632L69.6126 46.3861C71.5509 46.3861 73.4898 46.3855 75.428 46.3849L75.4129 46.3698V52.136C76.3938 52.2701 92.3427 52.2224 92.7963 52.081V51.3755C92.7963 46.0805 92.7963 40.786 92.7975 35.491C92.7975 35.25 92.8168 35.0096 92.8271 34.7686L92.8126 34.7867H98.5561C98.6304 35.4578 98.5851 36.0956 98.5929 36.7293C98.6008 37.3732 98.5947 38.0177 98.5947 38.6616V46.3777H110.178C110.183 47.2487 110.19 48.0642 110.192 48.8796C110.195 49.7047 110.192 50.5305 110.192 51.3556V63.7808H115.965C115.975 64.0689 115.99 64.3014 115.99 64.5346C115.991 67.9166 115.99 71.2987 115.994 74.6807C115.994 74.8982 116.033 75.1156 116.054 75.3325L116.064 75.321C115.907 75.3458 115.75 75.3911 115.594 75.3917C111.99 75.3953 108.387 75.3947 104.784 75.3935C104.685 75.3935 104.587 75.3808 104.403 75.3681C104.385 73.4376 104.397 71.5143 104.395 69.591C104.393 67.6841 104.395 65.7771 104.395 63.8333H98.64V81.1766C99.2501 81.2141 99.8861 81.1893 100.52 81.1935C101.164 81.1977 101.808 81.1947 102.453 81.1947H110.168V86.9736C110.857 87.0123 111.494 86.9893 112.129 86.9935C112.753 86.9978 113.377 86.9941 114.001 86.9941H115.976V92.7664H121.751C121.827 93.452 121.782 94.0892 121.79 94.7235C121.798 95.3674 121.792 96.0119 121.792 96.6564V104.374H127.565C127.574 104.661 127.59 104.894 127.59 105.126C127.591 108.508 127.59 111.89 127.594 115.272C127.594 115.489 127.637 115.706 127.658 115.923C127.658 115.924 127.666 115.915 127.666 115.915C127.449 115.941 127.232 115.987 127.015 115.988C125.505 115.995 123.995 115.992 122.485 115.992H121.855C121.83 116.162 121.795 116.294 121.794 116.426C121.791 119.989 121.791 123.554 121.794 127.118C121.794 127.255 121.833 127.391 121.854 127.528L121.865 127.517C121.708 127.542 121.551 127.587 121.394 127.588C117.792 127.591 114.189 127.591 110.587 127.589C110.488 127.589 110.389 127.577 110.201 127.565C110.184 125.662 110.203 123.764 110.19 121.83H104.423V127.496C103.902 127.667 103.42 127.571 102.949 127.588C102.466 127.604 101.983 127.591 101.5 127.591C101.017 127.591 100.574 127.591 100.111 127.591H98.6165V144.869C98.1369 145.013 93.6624 145.049 92.812 144.923V133.505C92.3221 133.365 87.7081 133.342 87.005 133.47V139.167H81.2368C81.1667 139.857 81.2084 140.494 81.2005 141.127C81.1933 141.751 81.1987 142.375 81.1987 142.999V144.953H75.4099V133.391H74.6857C73.2167 133.391 71.7472 133.392 70.2782 133.39C70.0578 133.39 69.8373 133.371 69.6169 133.361L69.6301 133.377C69.6253 131.438 69.6205 129.5 69.615 127.561C71.4645 127.569 73.314 127.578 75.1635 127.583C75.219 127.583 75.2752 127.553 75.3265 127.538C75.4425 126.937 75.4262 122.29 75.3042 121.828H69.6005C69.6005 122.058 69.5993 122.254 69.6005 122.45C69.6102 124.159 69.6205 125.868 69.6307 127.577C69.5305 127.582 69.4302 127.591 69.33 127.591C63.7658 127.591 58.2017 127.592 52.6376 127.591C52.4981 127.591 52.3579 127.573 52.2184 127.564L52.2347 127.577C52.225 125.888 52.2148 124.2 52.2051 122.511C52.2039 122.296 52.2051 122.081 52.2051 121.808H46.458C46.4368 121.602 46.4078 121.449 46.4078 121.296C46.4054 111.924 46.406 102.551 46.4078 93.1795C46.4078 93.04 46.429 92.8999 46.4405 92.7603L46.4181 92.7833C46.6597 92.7875 46.9007 92.7948 47.1423 92.7948C50.5229 92.7954 53.9042 92.7948 57.2848 92.7966C57.5156 92.7966 57.7463 92.8123 58.0036 92.822C58.0036 93.4496 58.0006 93.9926 58.0036 94.535C58.012 95.8826 58.0241 97.2303 58.0344 98.5779C56.1118 98.5779 54.1893 98.5779 52.2474 98.5779V104.346C53.3721 104.47 57.5609 104.421 58.0193 104.267V98.5628C58.0785 98.5724 58.1377 98.59 58.1975 98.5906C61.8765 98.593 65.5549 98.5942 69.2339 98.5918C69.3457 98.5918 69.4568 98.5525 69.6011 98.5253C69.6011 98.2946 69.6011 98.0959 69.6011 97.8977C69.6011 96.39 69.5981 94.8817 69.6048 93.374C69.6054 93.1572 69.6507 92.9403 69.6754 92.7229L69.664 92.7332C69.76 92.7537 69.8566 92.7918 69.9527 92.7918C71.778 92.7905 73.6039 92.7851 75.4292 92.7809L75.4135 92.7652V98.6051H86.9972C86.9972 98.8733 86.9972 99.0702 86.9972 99.2665C86.9972 100.452 86.993 101.638 86.999 102.823C87.0014 103.344 87.0244 103.865 87.0377 104.386C83.1786 104.386 79.3202 104.386 75.3996 104.386C75.402 106.365 75.3936 108.263 75.4057 110.168C75.5923 110.18 75.6914 110.193 75.7904 110.193C79.3939 110.194 82.9974 110.195 86.6004 110.191C86.7574 110.191 86.9138 110.145 87.0703 110.121C87.0455 110.279 87.0014 110.436 87.0008 110.593C86.996 112.263 86.9972 113.933 86.9996 115.603C86.9996 115.717 87.0238 115.832 87.0358 115.936C87.9557 116.06 92.3457 116.018 92.7528 115.89V110.195H92.0564C90.5874 110.195 89.1191 110.197 87.6501 110.192C87.4532 110.191 87.2569 110.153 87.06 110.132C87.0413 110.076 87.0062 110.02 87.0062 109.963C87.0099 108.1 87.0165 106.236 87.0226 104.372H92.7963V98.5942C92.7963 97.6277 92.792 96.6613 92.7975 95.6948C92.8029 94.7398 92.7715 93.783 92.818 92.7966C96.7175 92.796 100.531 92.7966 104.355 92.796V86.9966H91.9513C91.1256 86.9966 90.3005 86.9978 89.4748 86.9966C88.6588 86.9947 87.8428 86.9899 87.0111 86.9863C87.0111 84.9893 87.0111 83.0787 87.0111 81.1675C88.8612 81.1754 90.7112 81.1838 92.5619 81.1893C92.6175 81.1893 92.6731 81.1579 92.7528 81.1331V58.0309H75.4401V63.785C77.3753 63.8309 79.2743 63.759 81.2259 63.8279V69.614H86.9966C86.9966 69.8864 86.9966 70.1027 86.9966 70.3189C86.9966 73.6998 86.996 77.0806 86.9978 80.4614C86.9978 80.7018 87.0165 80.9428 87.0268 81.1832C83.2662 81.1875 79.5063 81.1923 75.7457 81.1953C75.6503 81.1953 75.5549 81.1778 75.3869 81.1621V69.5989H74.7189C73.2512 69.5989 71.7828 69.6013 70.3151 69.5959C70.0976 69.5953 69.8808 69.5572 69.6628 69.5373C69.6416 69.3416 69.6042 69.1447 69.6036 68.9471C69.5987 67.4582 69.6018 65.9686 69.5993 64.4796C69.5993 64.267 69.5812 64.0538 69.5716 63.8369H63.8009C63.8075 65.7723 63.7888 67.669 63.8123 69.5675C63.976 69.5826 64.0552 69.5965 64.1337 69.5965C65.8237 69.5983 67.5143 69.6001 69.2043 69.5953C69.3614 69.5953 69.5184 69.55 69.6754 69.5252C69.6507 69.7626 69.6042 70 69.6036 70.2374C69.5987 73.6593 69.6005 77.0812 69.6005 80.5031V81.1337C68.6734 81.2636 52.6454 81.2195 52.2045 81.0884C52.2045 80.3539 52.2009 79.6103 52.2051 78.8667C52.2124 77.7003 52.225 76.5333 52.2353 75.3669L52.2166 75.3856C52.8593 75.3899 53.5013 75.3953 54.144 75.3977C54.7866 75.3995 55.4293 75.4025 56.072 75.3971C56.7044 75.3917 57.3386 75.4219 57.9637 75.376V69.5989C57.7082 69.5989 57.4926 69.6001 57.2764 69.5989C55.59 69.5898 53.9042 69.5802 52.2178 69.5705L52.2341 69.5838C52.2263 67.733 52.2178 65.8822 52.213 64.0308C52.213 63.9753 52.2456 63.9203 52.2812 63.8085H58.0036C58.0036 63.5361 58.0036 63.3223 58.0036 63.1079C58.0036 61.5984 58.0006 60.0888 58.0072 58.5787C58.0084 58.3613 58.0531 58.1444 58.0779 57.927L58.0664 57.9372L58.0652 57.9354ZM98.634 98.6256V115.937C99.6427 116.067 115.537 116.017 115.949 115.889V98.6262H98.634V98.6256ZM69.5625 116.003V110.238H58.0338V121.748H63.8099V116.003H69.5625ZM104.359 52.2423H98.6268V57.9536H104.359V52.2423Z" fill="#EDDFD0"/>
<path d="M20.2848 40.5988C14.0853 40.5988 7.88573 40.5988 1.68619 40.5988C1.48505 40.5988 1.28211 40.6085 1.08278 40.5886C0.511392 40.5318 0.0807344 40.0999 0.0233536 39.5285C0.00523338 39.3491 0.0136895 39.1666 0.0136895 38.9854C0.0136895 26.5451 0.0136895 14.1043 0.0136895 1.664C0.0136895 1.52325 0.00946144 1.38191 0.0155015 1.24117C0.0450979 0.545913 0.48844 0.0729466 1.1752 0.00891803C1.33466 -0.00618305 1.49713 0.0028776 1.6578 0.0028776C14.0768 0.0028776 26.4958 0.0028776 38.9148 0.0028776C39.0761 0.0028776 39.2374 -0.00557901 39.398 0.00650186C40.0836 0.0602617 40.5475 0.525375 40.6012 1.21157C40.6139 1.37164 40.6048 1.53352 40.6048 1.6948C40.6048 14.1151 40.6048 26.5355 40.6048 38.9558C40.6048 39.137 40.6157 39.3201 40.5934 39.4989C40.5142 40.1295 40.0564 40.5571 39.427 40.5958C39.2464 40.6067 39.0646 40.5994 38.8834 40.5994C32.6839 40.5994 26.4843 40.5994 20.2848 40.5994V40.5988ZM20.2546 34.7994C24.7243 34.7994 29.1939 34.7994 33.6642 34.7994C34.6451 34.7994 34.8046 34.6345 34.807 33.6306C34.807 33.6106 34.807 33.5901 34.807 33.5702C34.807 24.7306 34.807 15.8904 34.807 7.05086C34.807 5.96177 34.6451 5.8023 33.5452 5.8023C24.7267 5.8023 15.9076 5.8023 7.08904 5.8023C5.92874 5.8023 5.81217 5.91948 5.81217 7.07864C5.81217 15.8983 5.81217 24.7179 5.81217 33.5375C5.81217 33.6988 5.80613 33.8601 5.81458 34.0208C5.84237 34.5529 6.06525 34.7722 6.60402 34.7982C6.76469 34.806 6.92596 34.8006 7.08723 34.8006C11.4766 34.8006 15.8659 34.8006 20.2552 34.8006L20.2546 34.7994Z" fill="#EDDFD0"/>
<path d="M20.3046 144.99C14.1051 144.99 7.90554 144.99 1.706 144.99C1.50486 144.99 1.30252 144.999 1.10259 144.981C0.502209 144.927 0.0691353 144.484 0.0202106 143.878C0.00571441 143.698 0.0141705 143.516 0.0141705 143.335C0.0141705 130.915 0.0141705 118.494 0.0141705 106.074C0.0141705 105.933 0.0105465 105.792 0.0159825 105.651C0.0431629 104.924 0.494961 104.45 1.21735 104.398C1.37742 104.386 1.53929 104.394 1.70056 104.394C14.0996 104.394 26.4987 104.394 38.8972 104.394C39.0585 104.394 39.2197 104.386 39.3804 104.398C40.0961 104.448 40.5594 104.921 40.6041 105.645C40.6126 105.785 40.6065 105.926 40.6065 106.067C40.6065 118.488 40.6065 130.908 40.6065 143.328C40.6065 143.49 40.615 143.652 40.6017 143.811C40.5431 144.505 40.0768 144.956 39.387 144.988C39.2064 144.996 39.0246 144.99 38.8434 144.99C32.6638 144.99 26.4848 144.99 20.3052 144.99L20.3046 144.99ZM20.2497 139.19C24.6794 139.19 29.1086 139.19 33.5384 139.19C33.7196 139.19 33.9014 139.199 34.082 139.184C34.5091 139.15 34.7392 138.933 34.7972 138.509C34.8159 138.37 34.8081 138.228 34.8081 138.087C34.8081 129.167 34.8087 120.247 34.8081 111.326C34.8081 110.395 34.6057 110.196 33.6737 110.192C33.6133 110.192 33.5529 110.192 33.4925 110.192C24.6939 110.192 15.8954 110.192 7.09677 110.192C5.93043 110.192 5.81386 110.308 5.81386 111.463C5.81386 120.282 5.81386 129.102 5.81386 137.922C5.81386 138.083 5.80842 138.244 5.81627 138.405C5.84345 138.94 6.06392 139.161 6.60028 139.188C6.76094 139.196 6.92221 139.19 7.08348 139.19C11.4728 139.19 15.8621 139.19 20.2515 139.19H20.2497Z" fill="#EDDFD0"/>
<path d="M124.647 40.5991C118.467 40.5991 112.288 40.5991 106.109 40.5991C105.927 40.5991 105.746 40.6058 105.565 40.5955C104.891 40.5569 104.443 40.1153 104.399 39.4496C104.388 39.289 104.394 39.1277 104.394 38.9664C104.394 26.5261 104.394 14.0853 104.394 1.64499C104.394 1.50424 104.39 1.3629 104.397 1.22216C104.429 0.558917 104.862 0.0865548 105.515 0.0122575C105.694 -0.00827996 105.877 0.00319686 106.058 0.00319686C118.477 0.00319686 130.896 0.00319686 143.315 0.00319686C143.477 0.00319686 143.639 -0.00586379 143.798 0.00802921C144.456 0.0660174 144.914 0.516634 144.979 1.17081C144.995 1.33028 144.985 1.49277 144.985 1.65344C144.985 14.0937 144.985 26.5346 144.985 38.9749C144.985 39.1561 144.996 39.3391 144.972 39.5173C144.885 40.1455 144.425 40.5611 143.788 40.5955C143.608 40.6052 143.426 40.5985 143.245 40.5985C137.045 40.5985 130.846 40.5985 124.646 40.5985L124.647 40.5991ZM110.193 20.2948C110.193 24.8052 110.192 29.3156 110.195 33.826C110.195 34.5998 110.39 34.7931 111.153 34.7985C111.858 34.8033 112.562 34.7997 113.267 34.7997C121.542 34.7997 129.818 34.7997 138.093 34.7997C139 34.7997 139.185 34.6131 139.188 33.7046C139.19 32.8994 139.188 32.0936 139.188 31.2884C139.188 23.1737 139.188 15.059 139.188 6.94365C139.188 6.00799 138.986 5.80685 138.06 5.80262C138.019 5.80262 137.98 5.80262 137.939 5.80262C129.1 5.80262 120.262 5.80262 111.423 5.80262C110.332 5.80262 110.193 5.93853 110.193 7.00527C110.193 11.4353 110.193 15.8654 110.193 20.2948H110.193Z" fill="#EDDFD0"/>
<path d="M133.377 86.9576V75.4064H127.631V69.6161C128.257 69.5774 128.893 69.6028 129.527 69.5986C130.151 69.5943 130.776 69.5974 131.4 69.5974H133.377V63.8408H144.884C145.012 64.2473 145.052 86.1252 144.919 86.9576H133.377H133.377Z" fill="#EDDFD0"/>
<path d="M58.0773 57.9252C57.9202 57.9494 57.7632 57.9941 57.6061 57.9947C54.002 57.9983 50.3979 57.9977 46.7944 57.9965C46.6953 57.9965 46.5969 57.9838 46.4181 57.9711V52.2116H23.252V46.4007H46.3891V34.8447H52.1858C52.2238 35.543 52.1978 36.26 52.2027 36.9746C52.2075 37.6994 52.2039 38.4243 52.2039 39.1491V52.1826H57.9709C57.983 52.4514 58.0011 52.664 58.0018 52.8766C58.0042 54.3668 58.0005 55.857 58.006 57.3465C58.0066 57.5435 58.044 57.7404 58.0658 57.9367C58.067 57.9355 58.0785 57.9252 58.0785 57.9252H58.0773Z" fill="#EDDFD0"/>
<path d="M63.8382 40.5645C62.9346 40.5759 62.031 40.5916 61.1274 40.5977C60.3035 40.6031 59.4791 40.6007 58.6552 40.5977C58.4595 40.5971 58.2638 40.582 58.0319 40.5717C58.0216 40.3422 58.0053 40.1465 58.0053 39.9514C58.0035 36.4938 58.0029 33.0363 58.0071 29.5787C58.0071 29.3619 58.0536 29.145 58.0778 28.9276L58.0663 28.9378C58.2233 28.9584 58.3804 28.997 58.5374 28.9976C62.0401 29.0013 65.5427 29.0007 69.0453 28.9988C69.2036 28.9988 69.3619 28.9819 69.601 28.9686V28.3078C69.601 24.8853 69.5998 21.4628 69.6041 18.0403C69.6041 17.8029 69.6506 17.5655 69.6747 17.3281L69.6632 17.3384C69.8801 17.3589 70.0975 17.397 70.3144 17.3982C71.7616 17.4036 73.2088 17.4012 74.656 17.4012C74.8734 17.4012 75.0909 17.4012 75.3983 17.4012V18.149C75.3983 25.3661 75.3983 32.5826 75.3983 39.7997C75.3983 40.0607 75.4068 40.3222 75.411 40.5832L75.4291 40.5687C73.4902 40.5693 71.5514 40.5699 69.6125 40.5711L69.6276 40.5862C69.6179 40.3663 69.6004 40.1459 69.6004 39.926C69.598 38.4394 69.6004 36.9535 69.598 35.4669C69.598 35.2555 69.5787 35.0441 69.5684 34.8387H63.8122V40.588L63.8352 40.5657L63.8382 40.5645Z" fill="#EDDFD0"/>
<path d="M29.0433 75.3623C28.8434 75.3738 28.6428 75.395 28.4429 75.3956C23.054 75.3974 17.6644 75.3968 12.2754 75.3968C12.0791 75.3968 11.8822 75.3968 11.6533 75.3968C11.6358 75.2313 11.614 75.1171 11.6134 75.0023C11.611 73.3334 11.6098 71.6638 11.6147 69.9948C11.6147 69.8378 11.6606 69.6813 11.6853 69.5249L11.6738 69.5351C11.8309 69.5557 11.9879 69.5943 12.145 69.5949C15.6476 69.5986 19.1509 69.5979 22.6535 69.5967C22.8118 69.5967 22.97 69.5798 23.1681 69.5683V63.8148C21.2739 63.7725 19.3749 63.8173 17.4445 63.7901V58.042H28.9859C29.0415 59.9272 28.9781 61.8269 29.0222 63.784H34.837L34.82 63.7689C34.8152 64.5886 34.8043 65.4077 34.8074 66.2274C34.8116 67.3461 34.8261 68.4648 34.8363 69.5834H29.0191V75.3847L29.0421 75.3623H29.0433Z" fill="#EDDFD0"/>
<path d="M87.0377 23.1915C87.0245 22.6702 87.0021 22.1483 86.9997 21.627C86.9937 20.4401 86.9991 19.2531 86.9967 18.0662C86.9967 17.8699 86.9804 17.673 86.9695 17.4211H81.3069C81.1783 16.9384 81.1463 6.59721 81.2664 5.81316C83.1793 5.80471 85.1037 5.79565 87.0275 5.78719L87.0118 5.77148V11.5818C87.6538 11.6216 88.2893 11.5963 88.9229 11.6005C89.5661 11.6047 90.21 11.6017 90.8533 11.6017H96.5847C97.225 11.6017 97.8652 11.6017 98.5495 11.6017V23.1607C98.3937 23.1752 98.2584 23.1987 98.1225 23.1987C94.5027 23.2006 90.8829 23.1999 87.2624 23.1987C87.1827 23.1987 87.1024 23.1848 87.0226 23.1776L87.0377 23.1915Z" fill="#EDDFD0"/>
<path d="M121.854 127.529C122.051 127.551 122.247 127.589 122.444 127.589C123.913 127.594 125.382 127.592 126.851 127.592H127.546V144.959H116.035V133.4H121.793V132.699C121.793 131.19 121.79 129.681 121.796 128.172C121.796 127.954 121.84 127.737 121.864 127.519C121.865 127.518 121.854 127.529 121.854 127.529Z" fill="#EDDFD0"/>
<path d="M139.201 98.5638V104.374C139.844 104.413 140.479 104.389 141.113 104.393C141.736 104.397 142.36 104.394 142.984 104.394H144.944V115.925C144.846 115.945 144.736 115.989 144.625 115.989C140.944 115.991 137.263 115.99 133.583 115.988C133.524 115.988 133.464 115.97 133.405 115.96L133.419 115.975C133.409 115.755 133.39 115.535 133.39 115.315C133.388 109.974 133.388 104.633 133.392 99.2922C133.392 99.0355 133.438 98.7788 133.463 98.5215L133.452 98.5317C133.548 98.5523 133.644 98.5903 133.74 98.5903C135.566 98.5891 137.392 98.5837 139.218 98.5795L139.202 98.5638H139.201Z" fill="#EDDFD0"/>
<path d="M5.8756 86.9335C5.99217 86.954 6.10875 86.9927 6.22532 86.9927C7.89419 86.9963 9.56246 86.9957 11.2313 86.9933C11.3298 86.9933 11.4282 86.9745 11.6034 86.9564V81.2295H23.1798C23.1895 81.453 23.207 81.6656 23.2076 81.8782C23.21 83.3461 23.2064 84.8139 23.2118 86.2817C23.2124 86.4992 23.2505 86.716 23.2716 86.9329L23.2825 86.9214C23.0651 86.9462 22.8482 86.9909 22.6308 86.9921C21.122 86.9981 19.6126 86.9951 18.1037 86.9951C17.9056 86.9951 17.7075 86.9951 17.4508 86.9951C17.3729 87.7882 17.4206 88.5457 17.4122 89.3001C17.4037 90.0648 17.4103 90.8296 17.4103 91.5943V98.5571H11.6215V92.7945H10.8967C9.42777 92.7945 7.95882 92.7957 6.48987 92.7933C6.26941 92.7933 6.04895 92.7734 5.82909 92.7625L5.84359 92.777C5.83332 91.2004 5.81822 89.6245 5.81641 88.0479C5.81641 87.6728 5.86231 87.2977 5.88708 86.9226L5.8756 86.9329V86.9335Z" fill="#EDDFD0"/>
<path d="M81.2289 40.5838C81.2192 40.3833 81.2005 40.1828 81.2005 39.9828C81.1987 34.6292 81.1993 29.2762 81.1993 23.9225V23.1916C83.1865 23.1916 85.1121 23.1916 87.0383 23.1916L87.0232 23.1777C87.0232 25.0877 87.0232 26.9977 87.0232 28.9886H92.8132C92.8132 30.9747 92.8132 32.8811 92.8132 34.7874L92.8277 34.7693C92.6078 34.7796 92.388 34.7983 92.1681 34.7989C90.6629 34.8013 89.1577 34.7989 87.6525 34.8013C87.4568 34.8013 87.2611 34.8183 86.993 34.8303V40.5174C86.8818 40.5597 86.845 40.5863 86.8081 40.5863C84.943 40.5826 83.0778 40.5766 81.212 40.5712L81.2283 40.5845L81.2289 40.5838Z" fill="#EDDFD0"/>
<path d="M58.0392 139.156C57.1549 139.167 56.2707 139.184 55.3858 139.189C54.3614 139.195 53.3376 139.19 52.2262 139.19C52.1797 140.176 52.2117 141.132 52.2057 142.086C52.1996 143.027 52.2045 143.969 52.2045 144.949H46.4996C46.3849 144.536 46.348 128.435 46.4712 127.603C48.3853 127.594 50.3097 127.585 52.2347 127.576L52.2184 127.562V133.399H58.0162V139.178L58.0392 139.156Z" fill="#EDDFD0"/>
<path d="M144.952 144.961H133.426V139.205H139.174V127.637H144.953V144.96L144.952 144.961Z" fill="#EDDFD0"/>
<path d="M17.3775 46.4404V52.1571H0.03462C-0.00826457 50.2761 0.0243519 48.3788 0.0134797 46.4404H17.3769H17.3775Z" fill="#EDDFD0"/>
<path d="M11.6859 69.5243C11.5089 69.5485 11.332 69.5938 11.1544 69.5938C7.59315 69.598 4.03131 69.5968 0.470081 69.5962C0.350487 69.5962 0.231498 69.5847 0.116132 69.5787C-0.00768955 69.1535 -0.0481581 58.892 0.0726435 58.0391H5.80106C5.82945 59.9346 5.79683 61.8325 5.81918 63.7865H11.5796C11.5917 64.0541 11.6092 64.2667 11.6098 64.48C11.6122 65.9689 11.6086 67.4579 11.614 68.9475C11.6146 69.1444 11.6521 69.3413 11.6738 69.537C11.675 69.5358 11.6865 69.5255 11.6865 69.5255L11.6859 69.5243Z" fill="#EDDFD0"/>
<path d="M29.0376 86.9797C29.0279 86.8402 29.0092 86.7007 29.0092 86.5605C29.0074 82.987 29.0074 79.4135 29.0092 75.84C29.0092 75.6805 29.0309 75.521 29.043 75.3616L29.02 75.3839C30.2407 75.3881 31.462 75.3972 32.6827 75.3942C33.4021 75.3924 34.1221 75.3724 34.8415 75.3604C34.8318 75.4195 34.8131 75.4787 34.8131 75.5379C34.8107 77.3253 34.8089 79.1121 34.8119 80.8994C34.8119 80.9912 34.8548 81.0825 34.8898 81.2214H40.6182V86.9828L40.6369 86.964C40.4775 86.9743 40.3174 86.9936 40.158 86.9936C36.5858 86.9954 33.0131 86.9954 29.441 86.9936C29.3015 86.9936 29.1614 86.9761 29.0219 86.9664L29.0382 86.9797H29.0376Z" fill="#EDDFD0"/>
<path d="M58.0782 28.9283C58.0015 28.9507 57.9254 28.9917 57.8486 28.9923C56.0016 28.996 54.1545 28.9954 52.2586 28.9954C52.2398 28.8286 52.2072 28.6776 52.2072 28.5266C52.2042 24.9712 52.2042 21.4152 52.2084 17.8598C52.2084 17.6834 52.2543 17.5065 52.2791 17.3301L52.2676 17.3403C52.4845 17.3609 52.7019 17.3989 52.9193 17.4001C54.3671 17.4056 55.8156 17.4032 57.2634 17.4032C57.4808 17.4032 57.6982 17.4032 58.0033 17.4032V18.154C58.0033 21.533 58.0021 24.912 58.0057 28.291C58.0057 28.5079 58.0437 28.7247 58.0655 28.941C58.0667 28.9398 58.0782 28.9295 58.0782 28.9295V28.9283Z" fill="#EDDFD0"/>
<path d="M40.6202 92.7646V98.477C40.1406 98.6178 29.8658 98.6546 29.0401 98.5284C29.0305 98.4432 29.0111 98.3484 29.0111 98.2529C29.0093 96.5217 29.0093 94.79 29.0111 93.0588C29.0111 92.9591 29.0323 92.8594 29.0431 92.7598L29.0208 92.7827C30.1038 92.7869 31.1874 92.7948 32.2704 92.7942C35.0585 92.7918 37.8472 92.7857 40.6353 92.7815L40.6202 92.7646Z" fill="#EDDFD0"/>
<path d="M46.4214 69.5845C48.3591 69.5839 50.2967 69.5827 52.2338 69.5821L52.2175 69.5688C52.2175 71.5078 52.2169 73.4462 52.2163 75.3852L52.235 75.3664C52.1353 75.3767 52.0357 75.3948 51.936 75.3954C50.2285 75.3972 48.5209 75.3972 46.8134 75.3954C46.698 75.3954 46.5827 75.3797 46.4051 75.367C46.4051 74.9986 46.4033 74.6621 46.4051 74.3257C46.4148 72.7394 46.4256 71.1526 46.4359 69.5664L46.4214 69.5845Z" fill="#EDDFD0"/>
<path d="M40.6224 63.7847H46.4215C46.4215 65.7738 46.4215 67.679 46.4215 69.5841L46.436 69.566C44.4983 69.5721 42.5601 69.5781 40.6224 69.5841C40.617 68.7645 40.6049 67.9442 40.6079 67.1245C40.6115 66.0052 40.6266 64.8859 40.6369 63.7666L40.6224 63.7847Z" fill="#EDDFD0"/>
<path d="M116.054 75.3345C116.25 75.3557 116.446 75.3937 116.643 75.3943C118.11 75.3991 119.577 75.3973 121.044 75.3973C121.263 75.3973 121.48 75.3973 121.76 75.3973C121.772 75.6553 121.789 75.8685 121.789 76.0811C121.792 77.5483 121.788 79.0156 121.793 80.4828C121.794 80.6996 121.832 80.9171 121.853 81.1339L121.864 81.1225C121.728 81.1466 121.592 81.1919 121.455 81.1925C119.75 81.1974 118.046 81.1962 116.34 81.1943C116.245 81.1943 116.15 81.1774 116.02 81.1653C116.009 81.0198 115.994 80.905 115.994 80.7896C115.992 79.1249 115.991 77.4595 115.996 75.7948C115.996 75.6383 116.04 75.4813 116.064 75.3242C116.065 75.3236 116.054 75.3351 116.054 75.3351L116.054 75.3345Z" fill="#EDDFD0"/>
<path d="M5.88745 86.9223C5.73041 86.9464 5.57337 86.9911 5.41633 86.9917C3.72631 86.9966 2.0363 86.9948 0.346283 86.993C0.267158 86.993 0.188637 86.9791 0.0225346 86.9634C0.00562234 85.0648 0.0189105 83.1681 0.0146825 81.2334H5.78417C5.79383 81.4515 5.81135 81.6641 5.81195 81.8773C5.81437 83.3663 5.81074 84.8552 5.81618 86.3442C5.81678 86.5411 5.85423 86.738 5.87598 86.9338C5.87719 86.9325 5.88866 86.9223 5.88866 86.9223H5.88745Z" fill="#EDDFD0"/>
<path d="M121.854 57.9357C122.071 57.9562 122.288 57.9943 122.505 57.9949C123.954 58.0003 125.402 57.9979 126.85 57.9979H127.546V63.6934C127.137 63.8209 122.729 63.8607 121.828 63.7381C121.817 63.6336 121.793 63.5189 121.793 63.4047C121.791 61.7351 121.79 60.0649 121.794 58.3954C121.794 58.2383 121.84 58.0819 121.865 57.9248L121.854 57.9351V57.9357Z" fill="#EDDFD0"/>
<path d="M121.854 81.1333C122.051 81.1545 122.247 81.1925 122.444 81.1931C123.913 81.198 125.382 81.1962 126.85 81.1962H127.546V86.8911C127.141 87.0197 122.757 87.0614 121.831 86.9376C121.819 86.8331 121.795 86.7189 121.795 86.6042C121.793 84.9346 121.791 83.2644 121.796 81.5948C121.796 81.4378 121.84 81.2807 121.865 81.1231C121.866 81.1225 121.855 81.1339 121.855 81.1339L121.854 81.1333Z" fill="#EDDFD0"/>
<path d="M23.2722 86.9331C23.3477 86.9537 23.4239 86.9917 23.4994 86.9917C25.3458 86.9905 27.1923 86.9851 29.0393 86.9803L29.023 86.967C29.023 88.9059 29.0224 90.8443 29.0218 92.7833L29.0441 92.7604C27.8204 92.7718 26.5967 92.7863 25.3724 92.7948C24.6748 92.7996 23.9765 92.7954 23.2493 92.7954C23.2324 92.6444 23.2131 92.5495 23.2131 92.4547C23.2106 90.7676 23.2094 89.0811 23.2143 87.394C23.2143 87.237 23.2584 87.0805 23.2831 86.9229C23.2837 86.9223 23.2728 86.9337 23.2728 86.9337L23.2722 86.9331Z" fill="#EDDFD0"/>
<path d="M34.837 63.784C34.8267 62.0377 34.8159 60.2914 34.8086 58.5451C34.808 58.3881 34.8273 58.231 34.84 58.0371H40.5908C40.601 59.9507 40.6119 61.868 40.6222 63.7852L40.6367 63.7671C38.6978 63.7677 36.7589 63.7683 34.8201 63.7695L34.837 63.7846V63.784Z" fill="#EDDFD0"/>
<path d="M46.4405 92.76C45.6807 92.7715 44.9208 92.7939 44.1616 92.7927C42.9814 92.7915 41.8011 92.7751 40.6209 92.7649L40.636 92.7818C40.6263 91.9621 40.6082 91.143 40.6094 90.3233C40.6112 89.204 40.6282 88.0841 40.6384 86.9648L40.6197 86.9836H46.4188V92.783L46.4411 92.76H46.4405Z" fill="#EDDFD0"/>
<path d="M5.82794 92.7623C5.81103 94.6693 5.79472 96.5756 5.77599 98.4826C5.77599 98.4983 5.75244 98.514 5.71439 98.5617H0.0566406V92.7768C1.99792 92.7768 3.92048 92.7768 5.84304 92.7768L5.82854 92.7617L5.82794 92.7623Z" fill="#EDDFD0"/>
<path d="M133.453 52.1368C133.671 52.1574 133.887 52.1954 134.105 52.196C135.553 52.2015 137.002 52.1991 138.45 52.1991H139.145V57.8946C138.736 58.022 134.329 58.0619 133.428 57.9393C133.416 57.8348 133.393 57.72 133.393 57.6059C133.39 55.9363 133.389 54.2661 133.394 52.5965C133.394 52.4395 133.44 52.283 133.465 52.126L133.453 52.1362V52.1368Z" fill="#EDDFD0"/>
<path d="M133.464 98.5219C133.307 98.5461 133.15 98.5908 132.993 98.5914C131.303 98.5962 129.613 98.5944 127.923 98.5926C127.844 98.5926 127.765 98.5787 127.598 98.563C127.582 96.6645 127.595 94.7678 127.591 92.833H133.36C133.37 93.0511 133.387 93.2637 133.388 93.4769C133.39 94.9659 133.387 96.4549 133.392 97.9438C133.393 98.1407 133.43 98.3377 133.452 98.5334C133.453 98.5322 133.465 98.5219 133.465 98.5219H133.464Z" fill="#EDDFD0"/>
<path d="M139.218 98.5803C139.211 96.7308 139.202 94.8812 139.197 93.0316C139.197 92.976 139.228 92.9198 139.255 92.8311H144.985C144.99 94.7398 144.987 96.6353 144.987 98.5187C144.863 98.5556 144.807 98.5864 144.751 98.5864C142.902 98.5809 141.052 98.5725 139.203 98.5646L139.219 98.5803H139.218Z" fill="#EDDFD0"/>
<path d="M121.866 57.9252C121.709 57.9494 121.552 57.9941 121.395 57.9947C119.705 57.9995 118.015 57.9977 116.325 57.9959C116.246 57.9959 116.168 57.982 116.001 57.9663C115.984 56.0678 115.997 54.1711 115.993 52.2363H121.762C121.772 52.4544 121.79 52.667 121.79 52.8802C121.793 54.3692 121.789 55.8582 121.794 57.3471C121.795 57.5441 121.832 57.741 121.854 57.9367C121.855 57.9355 121.867 57.9252 121.867 57.9252H121.866Z" fill="#EDDFD0"/>
<path d="M133.464 52.1254C133.307 52.1496 133.15 52.1943 132.993 52.1949C131.303 52.1997 129.613 52.1979 127.922 52.1961C127.843 52.1961 127.765 52.1822 127.599 52.1665C127.582 50.268 127.595 48.3713 127.59 46.4365H133.36C133.369 46.6546 133.387 46.8672 133.388 47.0804C133.39 48.5694 133.386 50.0584 133.392 51.5473C133.392 51.7443 133.43 51.9412 133.452 52.1369C133.453 52.1357 133.464 52.1254 133.464 52.1254H133.464Z" fill="#EDDFD0"/>
<path d="M75.4133 40.5835C77.3521 40.5835 79.2904 40.5835 81.2293 40.5841L81.213 40.5708V46.3219C81.0704 46.3617 81.0142 46.3907 80.9581 46.3907C79.1098 46.3853 77.2621 46.3774 75.4139 46.3702L75.429 46.3853C75.4193 45.5656 75.4012 44.7465 75.4024 43.9268C75.4042 42.8076 75.4211 41.6877 75.4314 40.5684L75.4133 40.5829V40.5835Z" fill="#EDDFD0"/>
<path d="M69.6353 46.3633C68.7721 46.3747 67.9084 46.3911 67.0453 46.3971C66.181 46.4031 65.3166 46.4001 64.4517 46.3971C64.256 46.3965 64.0603 46.3808 63.8302 46.3711C63.8193 46.2213 63.8036 46.1059 63.8036 45.99C63.8024 44.2811 63.8024 42.5717 63.8042 40.8629C63.8042 40.7632 63.8253 40.6641 63.8368 40.5645L63.8138 40.5868L69.6292 40.5856L69.6141 40.5705C69.6141 42.5095 69.6135 44.4478 69.6129 46.3868L69.6353 46.3639V46.3633Z" fill="#EDDFD0"/>
<path d="M133.406 115.96V121.67C132.935 121.817 128.518 121.856 127.629 121.733C127.618 121.648 127.594 121.554 127.594 121.459C127.592 119.769 127.59 118.078 127.595 116.388C127.595 116.231 127.641 116.075 127.666 115.917C127.666 115.917 127.658 115.925 127.658 115.924C127.734 115.946 127.808 115.989 127.882 115.989C129.728 115.987 131.574 115.981 133.42 115.976L133.406 115.96Z" fill="#EDDFD0"/>
<path d="M69.6751 17.3295C69.518 17.3537 69.361 17.3984 69.204 17.399C67.5139 17.4038 65.8239 17.402 64.1339 17.4002C64.0548 17.4002 63.9763 17.3863 63.8114 17.3706C63.792 15.4721 63.8059 13.5754 63.8017 11.6406H69.5712C69.5809 11.8587 69.5984 12.0713 69.599 12.2845C69.6014 13.7735 69.5978 15.2625 69.6032 16.7514C69.6038 16.9484 69.6413 17.1453 69.663 17.341C69.6642 17.3398 69.6757 17.3295 69.6757 17.3295H69.6751Z" fill="#EDDFD0"/>
<path d="M52.2784 17.3289C52.2017 17.3513 52.1256 17.3924 52.0489 17.393C50.2006 17.3966 48.3529 17.396 46.4304 17.396C46.3784 15.4763 46.4171 13.5802 46.4044 11.6207C48.3783 11.6056 50.3009 11.5911 52.2234 11.5766L52.2071 11.5615C52.2059 13.3114 52.2035 15.062 52.2071 16.8119C52.2071 16.9889 52.2452 17.1652 52.2669 17.341C52.2681 17.3398 52.2796 17.3295 52.2796 17.3295L52.2784 17.3289Z" fill="#EDDFD0"/>
<path d="M58.017 5.77246V11.5254C57.8793 11.5574 57.7875 11.5973 57.6957 11.5979C55.9253 11.6009 54.1544 11.5991 52.384 11.5966C52.3254 11.5966 52.2662 11.5743 52.207 11.5622C52.207 11.5622 52.2233 11.5779 52.2227 11.5773C52.2227 9.67579 52.2227 7.77426 52.2227 5.78937H58.0327L58.017 5.77367V5.77246Z" fill="#EDDFD0"/>
<path d="M87.027 5.78835C87.0191 3.93877 87.0113 2.08919 87.0059 0.239605C87.0059 0.184033 87.0367 0.127857 87.0632 0.0390625H92.7004C92.8219 0.501156 92.8382 5.14927 92.7222 5.74848C92.6709 5.76358 92.6147 5.79499 92.5591 5.79439C90.7096 5.78895 88.8602 5.78049 87.0107 5.77264L87.0264 5.78835H87.027Z" fill="#EDDFD0"/>
<path d="M58.0329 5.78835C58.025 3.93877 58.0172 2.08919 58.0117 0.239605C58.0117 0.184033 58.0425 0.127857 58.0691 0.0390625H63.7063C63.8277 0.501156 63.844 5.14927 63.728 5.74848C63.6767 5.76358 63.6205 5.79499 63.565 5.79439C61.7155 5.78895 59.866 5.78049 58.0166 5.77264L58.0323 5.78835H58.0329Z" fill="#EDDFD0"/>
<path d="M69.617 133.361V139.065C69.1405 139.221 65.2537 139.274 63.8179 139.161L63.8312 139.177C63.7195 137.701 63.772 133.858 63.9261 133.378H69.6303L69.617 133.361Z" fill="#EDDFD0"/>
<path d="M63.817 139.16V144.872C63.3344 145.014 58.8388 145.047 58.0343 144.924C58.0246 144.839 58.0053 144.744 58.0053 144.649C58.0035 142.918 58.0035 141.186 58.0053 139.455C58.0053 139.356 58.0264 139.256 58.0379 139.156L58.0149 139.179C59.9532 139.179 61.8921 139.178 63.8303 139.177L63.817 139.161V139.16Z" fill="#EDDFD0"/>
<path d="M34.8215 69.5688C36.7604 69.5682 38.6993 69.5676 40.6381 69.5664C40.6279 71.1134 40.6164 72.6609 40.6067 74.2079C40.6043 74.5679 40.6067 74.9273 40.6067 75.3755C39.6228 75.4208 38.6678 75.3918 37.7147 75.3948C36.7501 75.3984 35.7849 75.3882 34.8203 75.3845C34.8203 73.4462 34.8209 71.5072 34.8215 69.5688Z" fill="#EDDFD0"/>
<path d="M69.6751 92.7221C69.518 92.7462 69.361 92.7909 69.204 92.7916C67.5139 92.7964 65.8239 92.7946 64.1339 92.7928C64.0548 92.7928 63.9763 92.7789 63.8114 92.7632C63.792 90.8646 63.8059 88.968 63.8017 87.0332H69.5712C69.5809 87.2513 69.5984 87.4639 69.599 87.6771C69.6014 89.1661 69.5978 90.655 69.6032 92.144C69.6038 92.3409 69.6413 92.5379 69.663 92.7336C69.6642 92.7324 69.6757 92.7221 69.6757 92.7221H69.6751Z" fill="#EDDFD0"/>
<path d="M75.4293 92.7805C75.4215 90.9309 75.4136 89.0814 75.4082 87.2318C75.4082 87.1762 75.439 87.12 75.4656 87.0312H81.1028C81.2242 87.4933 81.2405 92.1421 81.1245 92.7407C81.0732 92.7558 81.017 92.7872 80.9615 92.7866C79.112 92.7811 77.2625 92.7727 75.413 92.7642L75.4287 92.7799L75.4293 92.7805Z" fill="#EDDFD0"/>
<path d="M104.424 110.157V104.432H110.093C110.217 104.861 110.244 109.429 110.123 110.157H104.424H104.424Z" fill="#EDDFD0"/>
<path d="M20.2693 29.0051C17.9336 29.0051 15.5985 29.0051 13.2628 29.0051C13.0617 29.0051 12.8587 29.0129 12.6594 28.99C12.114 28.9259 11.6954 28.5122 11.6241 27.9697C11.6006 27.7909 11.6066 27.6079 11.6066 27.4267C11.606 22.6946 11.606 17.9626 11.606 13.2311C11.606 13.1507 11.6048 13.0698 11.606 12.9895C11.6241 12.0792 12.0777 11.6116 12.9862 11.6044C14.3349 11.5935 15.6843 11.6014 17.033 11.6014C20.4559 11.6014 23.8788 11.6014 27.3012 11.6014C27.4824 11.6014 27.6648 11.5917 27.8442 11.611C28.453 11.6763 28.8849 12.0816 28.9833 12.6844C29.0123 12.8614 29.0057 13.0456 29.0057 13.2263C29.0069 17.9583 29.0063 22.6904 29.0057 27.4219C29.0057 27.5626 29.0123 27.7052 28.9966 27.8441C28.9193 28.5381 28.4578 28.9809 27.7572 28.999C27.0529 29.0172 26.348 29.0051 25.6432 29.0051C23.8511 29.0051 22.0596 29.0051 20.2675 29.0051H20.2693Z" fill="#EDDFD0"/>
<path d="M20.2472 133.395C17.8716 133.395 15.4954 133.398 13.1199 133.391C12.8626 133.39 12.5883 133.378 12.3516 133.291C11.9251 133.133 11.6739 132.796 11.6225 132.336C11.6002 132.137 11.6068 131.934 11.6068 131.733C11.6062 127.041 11.6068 122.349 11.6068 117.658C11.6068 117.497 11.6014 117.335 11.6123 117.175C11.657 116.54 12.0773 116.087 12.7085 116.004C12.8867 115.98 13.0703 115.991 13.2515 115.991C17.9429 115.991 22.6342 115.991 27.3249 115.991C27.4862 115.991 27.6481 115.982 27.8081 115.997C28.4689 116.056 28.9201 116.495 28.9962 117.156C29.0168 117.335 29.0077 117.518 29.0077 117.699C29.0077 122.371 29.0077 127.042 29.0077 131.713C29.0077 131.814 29.0095 131.915 29.0071 132.015C28.9811 132.926 28.5245 133.387 27.6161 133.393C26.3676 133.401 25.1197 133.395 23.8712 133.395C22.6632 133.395 21.4552 133.395 20.2472 133.395Z" fill="#EDDFD0"/>
<path d="M115.988 20.3415C115.988 17.9254 115.989 15.5092 115.986 13.0924C115.986 12.7245 116.003 12.3682 116.256 12.0673C116.49 11.7907 116.788 11.6421 117.143 11.6071C117.283 11.5932 117.424 11.5998 117.566 11.5998C122.297 11.5998 127.029 11.5998 131.76 11.5998C131.901 11.5998 132.043 11.5926 132.183 11.6046C132.845 11.6626 133.298 12.0975 133.377 12.7578C133.398 12.9366 133.389 13.1196 133.389 13.3008C133.389 17.9725 133.39 22.6441 133.389 27.3152C133.389 27.5164 133.399 27.7205 133.369 27.918C133.275 28.5541 132.825 28.9594 132.186 28.9993C132.025 29.0096 131.864 29.0041 131.703 29.0041C127.011 29.0041 122.32 29.0041 117.629 29.0041C117.448 29.0041 117.266 29.0114 117.086 28.9938C116.483 28.9346 116.055 28.5009 115.998 27.8927C115.982 27.7127 115.989 27.5302 115.989 27.3496C115.989 25.0138 115.989 22.678 115.989 20.3421L115.988 20.3415Z" fill="#EDDFD0"/>
</g>
<defs>
<clipPath id="clip0_1897_6517">
<rect width="145" height="145" fill="white"/>
</clipPath>
</defs>
</svg>
