<svg width="21" height="23" viewBox="0 0 21 23" fill="none" xmlns="http://www.w3.org/2000/svg">
<g filter="url(#filter0_d_1_45)">
<mask id="mask0_1_45" style="mask-type:alpha" maskUnits="userSpaceOnUse" x="2" y="0" width="17" height="17">
<rect x="2" width="17" height="17" fill="#D9D9D9"/>
</mask>
<g mask="url(#mask0_1_45)">
<path d="M15.8833 14.875L11.4208 10.4125C11.0667 10.6958 10.6594 10.9201 10.199 11.0854C9.73854 11.2507 9.24861 11.3333 8.72917 11.3333C7.44236 11.3333 6.3533 10.8877 5.46198 9.99635C4.57066 9.10503 4.125 8.01597 4.125 6.72917C4.125 5.44236 4.57066 4.3533 5.46198 3.46198C6.3533 2.57066 7.44236 2.125 8.72917 2.125C10.016 2.125 11.105 2.57066 11.9964 3.46198C12.8877 4.3533 13.3333 5.44236 13.3333 6.72917C13.3333 7.24861 13.2507 7.73854 13.0854 8.19896C12.9201 8.65937 12.6958 9.06667 12.4125 9.42083L16.875 13.8833L15.8833 14.875ZM8.72917 9.91667C9.61458 9.91667 10.3672 9.60677 10.987 8.98698C11.6068 8.36719 11.9167 7.61458 11.9167 6.72917C11.9167 5.84375 11.6068 5.09115 10.987 4.47135C10.3672 3.85156 9.61458 3.54167 8.72917 3.54167C7.84375 3.54167 7.09115 3.85156 6.47135 4.47135C5.85156 5.09115 5.54167 5.84375 5.54167 6.72917C5.54167 7.61458 5.85156 8.36719 6.47135 8.98698C7.09115 9.60677 7.84375 9.91667 8.72917 9.91667Z" fill="#EDDFD0"/>
</g>
</g>
<defs>
<filter id="filter0_d_1_45" x="0.125" y="2.125" width="20.75" height="20.75" filterUnits="userSpaceOnUse" color-interpolation-filters="sRGB">
<feFlood flood-opacity="0" result="BackgroundImageFix"/>
<feColorMatrix in="SourceAlpha" type="matrix" values="0 0 0 0 0 0 0 0 0 0 0 0 0 0 0 0 0 0 127 0" result="hardAlpha"/>
<feOffset dy="4"/>
<feGaussianBlur stdDeviation="2"/>
<feComposite in2="hardAlpha" operator="out"/>
<feColorMatrix type="matrix" values="0 0 0 0 0 0 0 0 0 0 0 0 0 0 0 0 0 0 0.25 0"/>
<feBlend mode="normal" in2="BackgroundImageFix" result="effect1_dropShadow_1_45"/>
<feBlend mode="normal" in="SourceGraphic" in2="effect1_dropShadow_1_45" result="shape"/>
</filter>
</defs>
</svg>
