<svg width="29" height="29" viewBox="0 0 29 29" fill="none" xmlns="http://www.w3.org/2000/svg">
<mask id="mask0_71_592" style="mask-type:alpha" maskUnits="userSpaceOnUse" x="0" y="0" width="29" height="29">
<rect width="29" height="29" fill="#D9D9D9"/>
</mask>
<g mask="url(#mask0_71_592)">
<path d="M21.75 26.5837C20.7431 26.5837 19.8872 26.2312 19.1823 25.5264C18.4774 24.8215 18.125 23.9656 18.125 22.9587C18.125 22.8177 18.1351 22.6717 18.1552 22.5206C18.1753 22.3696 18.2056 22.2337 18.2458 22.1128L9.72708 17.1587C9.38472 17.4607 9.00208 17.6974 8.57917 17.8686C8.15625 18.0397 7.71319 18.1253 7.25 18.1253C6.24306 18.1253 5.38715 17.7729 4.68229 17.068C3.97743 16.3632 3.625 15.5073 3.625 14.5003C3.625 13.4934 3.97743 12.6375 4.68229 11.9326C5.38715 11.2278 6.24306 10.8753 7.25 10.8753C7.71319 10.8753 8.15625 10.9609 8.57917 11.1321C9.00208 11.3033 9.38472 11.5399 9.72708 11.842L18.2458 6.88783C18.2056 6.76699 18.1753 6.63105 18.1552 6.48001C18.1351 6.32897 18.125 6.18296 18.125 6.04199C18.125 5.03505 18.4774 4.17914 19.1823 3.47428C19.8872 2.76942 20.7431 2.41699 21.75 2.41699C22.7569 2.41699 23.6128 2.76942 24.3177 3.47428C25.0226 4.17914 25.375 5.03505 25.375 6.04199C25.375 7.04894 25.0226 7.90484 24.3177 8.6097C23.6128 9.31456 22.7569 9.66699 21.75 9.66699C21.2868 9.66699 20.8438 9.5814 20.4208 9.41022C19.9979 9.23904 19.6153 9.00241 19.2729 8.70033L10.7542 13.6545C10.7944 13.7753 10.8247 13.9113 10.8448 14.0623C10.8649 14.2133 10.875 14.3594 10.875 14.5003C10.875 14.6413 10.8649 14.7873 10.8448 14.9383C10.8247 15.0894 10.7944 15.2253 10.7542 15.3462L19.2729 20.3003C19.6153 19.9982 19.9979 19.7616 20.4208 19.5904C20.8438 19.4192 21.2868 19.3337 21.75 19.3337C22.7569 19.3337 23.6128 19.6861 24.3177 20.3909C25.0226 21.0958 25.375 21.9517 25.375 22.9587C25.375 23.9656 25.0226 24.8215 24.3177 25.5264C23.6128 26.2312 22.7569 26.5837 21.75 26.5837ZM21.75 7.25033C22.0924 7.25033 22.3793 7.13453 22.6109 6.90293C22.8425 6.67133 22.9583 6.38435 22.9583 6.04199C22.9583 5.69963 22.8425 5.41265 22.6109 5.18105C22.3793 4.94946 22.0924 4.83366 21.75 4.83366C21.4076 4.83366 21.1207 4.94946 20.8891 5.18105C20.6575 5.41265 20.5417 5.69963 20.5417 6.04199C20.5417 6.38435 20.6575 6.67133 20.8891 6.90293C21.1207 7.13453 21.4076 7.25033 21.75 7.25033ZM7.25 15.7087C7.59236 15.7087 7.87934 15.5929 8.11094 15.3613C8.34254 15.1297 8.45833 14.8427 8.45833 14.5003C8.45833 14.158 8.34254 13.871 8.11094 13.6394C7.87934 13.4078 7.59236 13.292 7.25 13.292C6.90764 13.292 6.62066 13.4078 6.38906 13.6394C6.15747 13.871 6.04167 14.158 6.04167 14.5003C6.04167 14.8427 6.15747 15.1297 6.38906 15.3613C6.62066 15.5929 6.90764 15.7087 7.25 15.7087ZM21.75 24.167C22.0924 24.167 22.3793 24.0512 22.6109 23.8196C22.8425 23.588 22.9583 23.301 22.9583 22.9587C22.9583 22.6163 22.8425 22.3293 22.6109 22.0977C22.3793 21.8661 22.0924 21.7503 21.75 21.7503C21.4076 21.7503 21.1207 21.8661 20.8891 22.0977C20.6575 22.3293 20.5417 22.6163 20.5417 22.9587C20.5417 23.301 20.6575 23.588 20.8891 23.8196C21.1207 24.0512 21.4076 24.167 21.75 24.167Z" fill="#EDDFD0"/>
</g>
</svg>
