<svg width="18" height="18" viewBox="0 0 18 18" fill="none" xmlns="http://www.w3.org/2000/svg">
<path d="M0.0148486 17.7216L1.26186 12.9807C0.564125 11.6781 0.192998 10.224 0.192998 8.75478C0.178153 3.92299 4.03797 0 8.75883 0C13.4797 0 17.3395 3.92299 17.3395 8.75478C17.3395 13.5866 13.4945 17.5096 8.75883 17.5096C7.33366 17.5096 5.93819 17.146 4.67632 16.4493L0 17.7216H0.0148486ZM4.91386 14.662L5.21076 14.8437C6.29448 15.4951 7.51181 15.8434 8.75883 15.8434C12.589 15.8434 15.7214 12.6626 15.7214 8.73963C15.7214 4.81664 12.6038 1.63584 8.75883 1.63584C4.91385 1.63584 1.7963 4.81664 1.7963 8.73963C1.7963 10.0271 2.1526 11.2994 2.82064 12.4203L2.99879 12.7232L2.30105 15.3739L4.91386 14.662Z" fill="#EDDFD0"/>
<path fill-rule="evenodd" clip-rule="evenodd" d="M11.9515 9.96615C11.5952 9.7541 11.135 9.51175 10.7193 9.67836C10.4075 9.81468 10.1997 10.3145 9.99187 10.5872C9.88795 10.7235 9.75434 10.7386 9.59104 10.678C8.38855 10.1933 7.46814 9.37543 6.81494 8.25457C6.69618 8.07281 6.72587 7.93649 6.85947 7.78503C7.05247 7.54268 7.30483 7.27004 7.36422 6.95196C7.4236 6.63388 7.27515 6.25521 7.14154 5.96743C6.97824 5.60391 6.78525 5.07377 6.42895 4.86172C6.10235 4.66481 5.65699 4.77084 5.36008 5.02833C4.85533 5.45244 4.60296 6.11889 4.61781 6.7702C4.61781 6.95196 4.6475 7.14887 4.69204 7.33063C4.79596 7.76988 4.98895 8.16369 5.21163 8.55751C5.37493 8.8453 5.55308 9.13308 5.76091 9.40572C6.39927 10.2994 7.20092 11.0719 8.12134 11.6474C8.58155 11.9352 9.08629 12.1927 9.59104 12.3593C10.17 12.5562 10.6748 12.7531 11.2983 12.632C11.9515 12.5108 12.5898 12.0867 12.857 11.4505C12.9313 11.2536 12.9758 11.0567 12.9313 10.8447C12.8422 10.4357 12.2929 10.1782 11.9663 9.9813L11.9515 9.96615Z" fill="#EDDFD0"/>
</svg>
