<svg width="16" height="16" viewBox="0 0 16 16" fill="none" xmlns="http://www.w3.org/2000/svg">
<mask id="mask0_71_654" style="mask-type:alpha" maskUnits="userSpaceOnUse" x="0" y="0" width="16" height="16">
<rect width="15.9689" height="15.9689" fill="#D9D9D9"/>
</mask>
<g mask="url(#mask0_71_654)">
<path d="M1.33008 13.5404V12.2429C1.65167 12.2429 1.92614 12.193 2.15347 12.0932C2.38081 11.9934 2.61091 11.8853 2.84379 11.7688C3.07667 11.6524 3.3345 11.547 3.61729 11.4528C3.90007 11.3585 4.24661 11.3114 4.65693 11.3114C5.07833 11.3114 5.42487 11.3585 5.69657 11.4528C5.96826 11.547 6.22055 11.6524 6.45342 11.7688C6.6863 11.8853 6.91918 11.9934 7.15206 12.0932C7.38494 12.193 7.66218 12.2429 7.98377 12.2429C8.30537 12.2429 8.58261 12.193 8.81549 12.0932C9.04837 11.9934 9.28125 11.8853 9.51412 11.7688C9.747 11.6524 10.0021 11.547 10.2793 11.4528C10.5565 11.3585 10.9003 11.3114 11.3106 11.3114C11.732 11.3114 12.0813 11.3585 12.3586 11.4528C12.6358 11.547 12.8909 11.6524 13.1238 11.7688C13.3566 11.8853 13.5895 11.9934 13.8224 12.0932C14.0553 12.193 14.327 12.2429 14.6375 12.2429V13.5404C14.2161 13.5404 13.864 13.4905 13.5812 13.3907C13.2984 13.2909 13.0406 13.1827 12.8077 13.0663C12.5748 12.9499 12.3475 12.8445 12.1257 12.7503C11.9039 12.656 11.6322 12.6089 11.3106 12.6089C11.0001 12.6089 10.7312 12.656 10.5039 12.7503C10.2765 12.8445 10.0492 12.9499 9.82186 13.0663C9.59452 13.1827 9.33947 13.2909 9.05668 13.3907C8.7739 13.4905 8.41626 13.5404 7.98377 13.5404C7.55128 13.5404 7.19365 13.4905 6.91087 13.3907C6.62808 13.2909 6.37303 13.1827 6.14569 13.0663C5.91836 12.9499 5.69379 12.8445 5.472 12.7503C5.25021 12.656 4.97852 12.6089 4.65693 12.6089C4.34642 12.6089 4.0775 12.656 3.85017 12.7503C3.62283 12.8445 3.39272 12.9499 3.15984 13.0663C2.92697 13.1827 2.66913 13.2909 2.38635 13.3907C2.10357 13.4905 1.75148 13.5404 1.33008 13.5404ZM1.33008 10.5795V9.28202C1.65167 9.28202 1.92614 9.23212 2.15347 9.13231C2.38081 9.0325 2.61091 8.92438 2.84379 8.80794C3.07667 8.6915 3.3345 8.58615 3.61729 8.49189C3.90007 8.39763 4.24661 8.3505 4.65693 8.3505C5.07833 8.3505 5.42487 8.39763 5.69657 8.49189C5.96826 8.58615 6.22055 8.6915 6.45342 8.80794C6.6863 8.92438 6.91918 9.0325 7.15206 9.13231C7.38494 9.23212 7.66218 9.28202 7.98377 9.28202C8.30537 9.28202 8.58261 9.23212 8.81549 9.13231C9.04837 9.0325 9.28125 8.92438 9.51412 8.80794C9.747 8.6915 10.0021 8.58615 10.2793 8.49189C10.5565 8.39763 10.9003 8.3505 11.3106 8.3505C11.732 8.3505 12.0813 8.39763 12.3586 8.49189C12.6358 8.58615 12.8909 8.6915 13.1238 8.80794C13.3566 8.92438 13.5895 9.0325 13.8224 9.13231C14.0553 9.23212 14.327 9.28202 14.6375 9.28202V10.5795C14.2161 10.5795 13.864 10.5296 13.5812 10.4298C13.2984 10.33 13.0406 10.2219 12.8077 10.1054C12.5748 9.98897 12.3475 9.88362 12.1257 9.78936C11.9039 9.6951 11.6322 9.64797 11.3106 9.64797C10.989 9.64797 10.7146 9.6951 10.4872 9.78936C10.2599 9.88362 10.0326 9.98897 9.80522 10.1054C9.57789 10.2219 9.3256 10.33 9.04837 10.4298C8.77113 10.5296 8.41626 10.5795 7.98377 10.5795C7.55128 10.5795 7.19365 10.5296 6.91087 10.4298C6.62808 10.33 6.37303 10.2219 6.14569 10.1054C5.91836 9.98897 5.69379 9.88362 5.472 9.78936C5.25021 9.6951 4.97852 9.64797 4.65693 9.64797C4.34642 9.64797 4.0775 9.6951 3.85017 9.78936C3.62283 9.88362 3.39272 9.98897 3.15984 10.1054C2.92697 10.2219 2.66913 10.33 2.38635 10.4298C2.10357 10.5296 1.75148 10.5795 1.33008 10.5795ZM1.33008 7.61859V6.32112C1.65167 6.32112 1.92614 6.27122 2.15347 6.17142C2.38081 6.07161 2.61091 5.96349 2.84379 5.84705C3.07667 5.73061 3.3345 5.62526 3.61729 5.531C3.90007 5.43674 4.24661 5.38961 4.65693 5.38961C5.07833 5.38961 5.42487 5.43674 5.69657 5.531C5.96826 5.62526 6.22055 5.73061 6.45342 5.84705C6.6863 5.96349 6.91918 6.07161 7.15206 6.17142C7.38494 6.27122 7.66218 6.32112 7.98377 6.32112C8.30537 6.32112 8.58261 6.27122 8.81549 6.17142C9.04837 6.07161 9.28125 5.96349 9.51412 5.84705C9.747 5.73061 10.0021 5.62526 10.2793 5.531C10.5565 5.43674 10.9003 5.38961 11.3106 5.38961C11.732 5.38961 12.0813 5.43674 12.3586 5.531C12.6358 5.62526 12.8909 5.73061 13.1238 5.84705C13.3566 5.96349 13.5895 6.07161 13.8224 6.17142C14.0553 6.27122 14.327 6.32112 14.6375 6.32112V7.61859C14.2161 7.61859 13.864 7.56869 13.5812 7.46889C13.2984 7.36908 13.0406 7.26096 12.8077 7.14452C12.5748 7.02808 12.3475 6.92273 12.1257 6.82847C11.9039 6.73421 11.6322 6.68708 11.3106 6.68708C11.0001 6.68708 10.7312 6.73421 10.5039 6.82847C10.2765 6.92273 10.0492 7.02808 9.82186 7.14452C9.59452 7.26096 9.33947 7.36908 9.05668 7.46889C8.7739 7.56869 8.41626 7.61859 7.98377 7.61859C7.55128 7.61859 7.19365 7.56869 6.91087 7.46889C6.62808 7.36908 6.37303 7.26096 6.14569 7.14452C5.91836 7.02808 5.69379 6.92273 5.472 6.82847C5.25021 6.73421 4.97852 6.68708 4.65693 6.68708C4.34642 6.68708 4.0775 6.73421 3.85017 6.82847C3.62283 6.92273 3.39272 7.02808 3.15984 7.14452C2.92697 7.26096 2.66913 7.36908 2.38635 7.46889C2.10357 7.56869 1.75148 7.61859 1.33008 7.61859ZM1.33008 4.6577V3.36023C1.65167 3.36023 1.92614 3.31033 2.15347 3.21052C2.38081 3.11071 2.61091 3.00259 2.84379 2.88615C3.07667 2.76971 3.3345 2.66436 3.61729 2.5701C3.90007 2.47584 4.24661 2.42871 4.65693 2.42871C5.07833 2.42871 5.42487 2.47584 5.69657 2.5701C5.96826 2.66436 6.22055 2.76971 6.45342 2.88615C6.6863 3.00259 6.91918 3.11071 7.15206 3.21052C7.38494 3.31033 7.66218 3.36023 7.98377 3.36023C8.30537 3.36023 8.58261 3.31033 8.81549 3.21052C9.04837 3.11071 9.28125 3.00259 9.51412 2.88615C9.747 2.76971 10.0021 2.66436 10.2793 2.5701C10.5565 2.47584 10.9003 2.42871 11.3106 2.42871C11.732 2.42871 12.0813 2.47584 12.3586 2.5701C12.6358 2.66436 12.8909 2.76971 13.1238 2.88615C13.3566 3.00259 13.5895 3.11071 13.8224 3.21052C14.0553 3.31033 14.327 3.36023 14.6375 3.36023V4.6577C14.2161 4.6577 13.864 4.6078 13.5812 4.50799C13.2984 4.40819 13.0406 4.30006 12.8077 4.18362C12.5748 4.06718 12.3475 3.96183 12.1257 3.86757C11.9039 3.77331 11.6322 3.72618 11.3106 3.72618C11.0001 3.72618 10.7312 3.77331 10.5039 3.86757C10.2765 3.96183 10.0492 4.06718 9.82186 4.18362C9.59452 4.30006 9.33947 4.40819 9.05668 4.50799C8.7739 4.6078 8.41626 4.6577 7.98377 4.6577C7.55128 4.6577 7.19365 4.6078 6.91087 4.50799C6.62808 4.40819 6.37303 4.30006 6.14569 4.18362C5.91836 4.06718 5.69379 3.96183 5.472 3.86757C5.25021 3.77331 4.97852 3.72618 4.65693 3.72618C4.34642 3.72618 4.0775 3.77331 3.85017 3.86757C3.62283 3.96183 3.39272 4.06718 3.15984 4.18362C2.92697 4.30006 2.66913 4.40819 2.38635 4.50799C2.10357 4.6078 1.75148 4.6577 1.33008 4.6577Z" fill="#FFF7E5"/>
</g>
</svg>
