<svg width="44" height="44" viewBox="0 0 44 44" fill="none" xmlns="http://www.w3.org/2000/svg">
<circle cx="22" cy="22" r="22" fill="#938270"/>
<path d="M13.6379 30.4535L14.8849 25.7126C14.1872 24.41 13.816 22.9559 13.816 21.4867C13.8012 16.6549 17.661 12.7319 22.3819 12.7319C27.1027 12.7319 30.9626 16.6549 30.9626 21.4867C30.9626 26.3185 27.1176 30.2415 22.3819 30.2415C20.9567 30.2415 19.5612 29.878 18.2994 29.1812L13.623 30.4535H13.6379ZM18.5369 27.3939L18.8338 27.5757C19.9175 28.227 21.1349 28.5754 22.3819 28.5754C26.212 28.5754 29.3444 25.3946 29.3444 21.4716C29.3444 17.5486 26.2269 14.3678 22.3819 14.3678C18.5369 14.3678 15.4193 17.5486 15.4193 21.4716C15.4193 22.759 15.7756 24.0314 16.4437 25.1522L16.6218 25.4551L15.9241 28.1058L18.5369 27.3939Z" fill="#EDDFD0"/>
<path fill-rule="evenodd" clip-rule="evenodd" d="M25.5745 22.6981C25.2182 22.486 24.758 22.2437 24.3423 22.4103C24.0306 22.5466 23.8228 23.0465 23.6149 23.3191C23.511 23.4554 23.3774 23.4706 23.2141 23.41C22.0116 22.9253 21.0912 22.1074 20.438 20.9865C20.3192 20.8047 20.3489 20.6684 20.4825 20.517C20.6755 20.2746 20.9279 20.002 20.9873 19.6839C21.0466 19.3658 20.8982 18.9871 20.7646 18.6994C20.6013 18.3358 20.4083 17.8057 20.052 17.5937C19.7254 17.3967 19.28 17.5028 18.9831 17.7603C18.4784 18.1844 18.226 18.8508 18.2409 19.5021C18.2409 19.6839 18.2705 19.8808 18.3151 20.0626C18.419 20.5018 18.612 20.8956 18.8347 21.2894C18.998 21.5772 19.1761 21.865 19.384 22.1377C20.0223 23.0313 20.824 23.8038 21.7444 24.3794C22.2046 24.6672 22.7093 24.9246 23.2141 25.0913C23.7931 25.2882 24.2978 25.4851 24.9213 25.3639C25.5745 25.2427 26.2129 24.8186 26.4801 24.1825C26.5543 23.9856 26.5988 23.7886 26.5543 23.5766C26.4652 23.1676 25.916 22.9101 25.5894 22.7132L25.5745 22.6981Z" fill="#EDDFD0"/>
</svg>
