<svg width="95" height="87" viewBox="0 0 95 87" fill="none" xmlns="http://www.w3.org/2000/svg">
<path d="M25.3436 32.7061C25.6714 32.7748 25.9992 32.8436 26.327 32.9295C37.8353 35.7825 44.8404 47.401 41.959 58.8647C40.5442 64.502 37.0244 69.0394 32.4349 71.8753L31.9345 72.1846L21.4787 78.4407H53.8641V86.9998H4.75977V78.5095L4.84603 78.4579L28.0006 64.5708C30.675 62.8693 32.7454 60.1193 33.5736 56.8194C35.1955 50.3399 31.5377 43.7917 25.3263 41.6433V32.7404L25.3436 32.7061Z" fill="#EDDFD0"/>
<path fill-rule="evenodd" clip-rule="evenodd" d="M0 58.0746H25.7427V49.8764H9.041V10.415H0V58.0746Z" fill="#EDDFD0"/>
<path d="M23.7949 10.415H14.8574V46.164H23.7949V10.415Z" fill="#EDDFD0"/>
<path fill-rule="evenodd" clip-rule="evenodd" d="M54.4688 73.9752H62.5781L74.9664 42.3854H65.6838L58.5752 61.6693L39.5098 10.5723H30.0547L54.4688 73.9752Z" fill="#EDDFD0"/>
<path fill-rule="evenodd" clip-rule="evenodd" d="M14.8223 4.48581C14.8223 2.01088 16.841 0 19.3255 0C21.8101 0 23.8288 2.01088 23.8288 4.48581C23.8288 6.96074 21.8101 8.97162 19.3255 8.97162C16.841 8.97162 14.8223 6.96074 14.8223 4.48581Z" fill="#EDDFD0"/>
<path fill-rule="evenodd" clip-rule="evenodd" d="M56.3682 36.2642C56.8168 36.2642 57.1274 36.1782 57.2999 35.9892C57.4725 35.8001 57.5588 35.4736 57.5588 35.0095C57.5588 34.5455 57.4725 34.1845 57.3172 33.9611C57.1447 33.7377 56.8858 33.6345 56.5235 33.6345H56.3682V36.2642ZM55.2812 32.7236H56.7133C57.4035 32.7236 57.9038 32.8955 58.2144 33.2392C58.525 33.583 58.6802 34.1502 58.6802 34.9064C58.6802 35.972 58.3697 36.6595 57.7313 36.9688C57.4207 37.1063 56.9549 37.1751 56.3682 37.1751V40.7328H55.2812V32.7236Z" fill="#EDDFD0"/>
<path fill-rule="evenodd" clip-rule="evenodd" d="M60.5968 36.2817C61.0108 36.2817 61.3214 36.1786 61.494 35.9896C61.6665 35.8005 61.7528 35.474 61.7528 35.0099C61.7528 34.7521 61.7355 34.5458 61.701 34.374C61.6665 34.2021 61.6147 34.0474 61.5285 33.9443C61.4594 33.8412 61.3559 33.7552 61.2179 33.7037C61.0971 33.6521 60.9418 33.6178 60.7866 33.6178H60.5968V36.2817ZM59.5098 32.7412H60.9418C61.5285 32.7412 61.9771 32.8787 62.2531 33.1537C62.6155 33.5146 62.8052 34.0646 62.8052 34.8208C62.8052 35.388 62.7017 35.8521 62.5119 36.213C62.3221 36.5567 62.0461 36.7802 61.6837 36.8489L63.1676 40.7504H62.0633L60.5968 36.8317V40.7504H59.5098V32.7412Z" fill="#EDDFD0"/>
<path fill-rule="evenodd" clip-rule="evenodd" d="M66.7906 37.0549C66.7906 35.6627 66.7216 34.7518 66.6008 34.2877C66.48 33.8237 66.2212 33.6003 65.8416 33.6003C65.462 33.6003 65.2032 33.8065 65.0652 34.219C64.9444 34.6487 64.8754 35.4908 64.8754 36.7627C64.8754 37.9314 64.9444 38.7392 65.0652 39.2032C65.2032 39.6329 65.462 39.8392 65.8244 39.8392C66.1867 39.8392 66.4455 39.6329 66.5663 39.2376C66.7043 38.8423 66.7733 38.1033 66.7733 37.0377L66.7906 37.0549ZM67.9293 36.9346C67.9293 38.3439 67.774 39.3579 67.4635 39.9423C67.1529 40.5438 66.618 40.836 65.8761 40.836C65.0997 40.836 64.5476 40.5094 64.2198 39.8735C63.9092 39.2548 63.7539 38.1376 63.7539 36.5392C63.7539 35.1127 63.9092 34.0987 64.2198 33.5143C64.5303 32.9128 65.0652 32.6206 65.8244 32.6206C66.4973 32.6206 66.9976 32.844 67.3254 33.3081C67.5325 33.6175 67.705 34.0471 67.7913 34.6143C67.8948 35.1471 67.9293 35.9033 67.9293 36.9174V36.9346Z" fill="#EDDFD0"/>
<path fill-rule="evenodd" clip-rule="evenodd" d="M70.087 36.2642C70.5356 36.2642 70.8462 36.1782 71.0187 35.9892C71.1912 35.8001 71.2775 35.4736 71.2775 35.0095C71.2775 34.5455 71.1912 34.1845 71.036 33.9611C70.8634 33.7377 70.6046 33.6345 70.2423 33.6345H70.087V36.2642ZM69 32.7236H70.4321C71.1222 32.7236 71.6226 32.8955 71.9331 33.2392C72.2437 33.583 72.399 34.1502 72.399 34.9064C72.399 35.972 72.0884 36.6595 71.45 36.9688C71.1395 37.1063 70.6736 37.1751 70.087 37.1751V40.7328H69V32.7236Z" fill="#EDDFD0"/>
<path fill-rule="evenodd" clip-rule="evenodd" d="M73.2246 32.7412H76.106V33.6521H74.3116V36.1786H75.8989V37.0895H74.3116V39.8223H76.106V40.7504H73.2246V32.7412Z" fill="#EDDFD0"/>
<path fill-rule="evenodd" clip-rule="evenodd" d="M78.1944 36.2812C78.6085 36.2812 78.9191 36.1781 79.0916 35.9891C79.2642 35.8 79.3504 35.4735 79.3504 35.0094C79.3504 34.7516 79.3332 34.5454 79.2987 34.3735C79.2641 34.2016 79.2124 34.0469 79.1261 33.9438C79.0571 33.8407 78.9536 33.7548 78.8156 33.7032C78.6948 33.6516 78.5395 33.6173 78.3842 33.6173H78.1944V36.2812ZM77.1074 32.7407H78.5395C79.1261 32.7407 79.5747 32.8782 79.8508 33.1532C80.2131 33.5141 80.4029 34.0641 80.4029 34.8204C80.4029 35.3875 80.2994 35.8516 80.1096 36.2125C79.9198 36.5562 79.6437 36.7797 79.2814 36.8484L80.7652 40.7499H79.661L78.1944 36.8312V40.7499H77.1074V32.7407Z" fill="#EDDFD0"/>
<path fill-rule="evenodd" clip-rule="evenodd" d="M81.0586 32.7407H84.5956V33.686H83.3706V40.7499H82.3181V33.686H81.0586V32.7407Z" fill="#EDDFD0"/>
<path d="M86.2686 32.7407H85.1816V40.7499H86.2686V32.7407Z" fill="#EDDFD0"/>
<path fill-rule="evenodd" clip-rule="evenodd" d="M87.5117 32.7407H90.3931V33.6516H88.5987V36.1781H90.1861V37.089H88.5987V39.8218H90.3931V40.7499H87.5117V32.7407Z" fill="#EDDFD0"/>
<path fill-rule="evenodd" clip-rule="evenodd" d="M94.0702 32.8963V33.9447C93.7424 33.7041 93.4491 33.5838 93.173 33.5838C92.8797 33.5838 92.6554 33.6869 92.4828 33.8931C92.3103 34.0822 92.2068 34.34 92.2068 34.6494C92.2068 34.9243 92.2758 35.165 92.3966 35.3712C92.4656 35.4743 92.5691 35.6118 92.7244 35.7837C92.8797 35.9556 93.0695 36.1618 93.311 36.4024C93.7596 36.8493 94.0529 37.2274 94.2082 37.554C94.3635 37.8633 94.4498 38.2586 94.4498 38.7055C94.4498 39.3242 94.2772 39.8398 93.9322 40.2351C93.5871 40.6304 93.1385 40.8195 92.5864 40.8195C92.1205 40.8195 91.7237 40.6992 91.3958 40.4414V39.3758C91.7754 39.6508 92.1378 39.7883 92.4483 39.7883C92.7416 39.7883 92.9659 39.6851 93.1385 39.4961C93.311 39.307 93.3973 39.032 93.3973 38.7055C93.3973 38.4133 93.3283 38.1555 93.2075 37.9149C93.1385 37.8118 93.0522 37.6743 92.9314 37.5368C92.8107 37.3993 92.6726 37.2274 92.4828 37.0555C92.2068 36.7805 91.9825 36.5399 91.7927 36.3337C91.6201 36.1274 91.4821 35.9384 91.3958 35.7837C91.2233 35.4743 91.1543 35.0962 91.1543 34.6322C91.1543 34.0134 91.3096 33.515 91.6374 33.1369C91.9652 32.7588 92.4138 32.5869 92.9659 32.5869C93.3455 32.5869 93.7251 32.6728 94.0702 32.8619V32.8963Z" fill="#EDDFD0"/>
<path fill-rule="evenodd" clip-rule="evenodd" d="M57.9546 21.9823V23.0307C57.6268 22.7901 57.3335 22.6698 57.0574 22.6698C56.7641 22.6698 56.5398 22.7729 56.3673 22.962C56.1947 23.151 56.0912 23.4088 56.0912 23.7182C56.0912 23.9932 56.1602 24.2338 56.281 24.4401C56.35 24.5432 56.4535 24.6807 56.6088 24.8525C56.7641 25.0244 56.9539 25.2307 57.1955 25.4713C57.6441 25.9181 57.9374 26.2963 58.0927 26.6228C58.2479 26.9322 58.3342 27.3275 58.3342 27.7743C58.3342 28.3931 58.1617 28.9087 57.8166 29.304C57.4715 29.6993 57.0229 29.8883 56.4708 29.8883C56.005 29.8883 55.6081 29.768 55.2803 29.5102V28.4446C55.6599 28.7196 56.0222 28.8571 56.3328 28.8571C56.6261 28.8571 56.8504 28.754 57.0229 28.5649C57.1955 28.3759 57.2645 28.1009 57.2645 27.7743C57.2645 27.4822 57.1955 27.2244 57.0747 26.9837C57.0057 26.8806 56.9194 26.7431 56.7986 26.6056C56.6778 26.4681 56.5398 26.2963 56.35 26.1244C56.074 25.8494 55.8497 25.6088 55.6599 25.4025C55.4873 25.1963 55.3493 25.0072 55.263 24.8525C55.0905 24.5432 55.0215 24.1651 55.0215 23.701C55.0215 23.0823 55.1768 22.5839 55.5046 22.2057C55.8324 21.8448 56.281 21.6558 56.8331 21.6558C57.2127 21.6558 57.5923 21.7417 57.9374 21.9308L57.9546 21.9823Z" fill="#EDDFD0"/>
<path fill-rule="evenodd" clip-rule="evenodd" d="M61.5952 27.2928L62.0438 27.9287C62.1128 27.4131 62.1474 26.846 62.1474 26.1928C62.1474 24.8179 62.0783 23.8898 61.9576 23.4085C61.8195 22.9445 61.5607 22.7039 61.1639 22.7039C60.8016 22.7039 60.5428 22.9101 60.422 23.3054C60.3012 23.6835 60.2322 24.457 60.2322 25.6085C60.2322 26.8975 60.3012 27.7912 60.422 28.2725C60.56 28.7193 60.8188 28.96 61.1984 28.96C61.3537 28.96 61.4917 28.9084 61.6297 28.8225L60.9396 27.8428L61.578 27.3272L61.5952 27.2928ZM63.5104 29.9568L62.8203 30.438L62.2681 29.6474C61.9403 29.8365 61.5952 29.9224 61.2156 29.9224C60.4392 29.9224 59.8871 29.5959 59.5593 28.9428C59.2315 28.2725 59.0762 27.1381 59.0762 25.5397C59.0762 24.1476 59.2315 23.1679 59.542 22.5836C59.8526 21.9992 60.3875 21.707 61.1294 21.707C61.9058 21.707 62.4579 22.0336 62.7857 22.6695C63.0963 23.2882 63.2516 24.4054 63.2516 26.0038C63.2516 27.4475 63.0963 28.4443 62.803 29.0115L63.4931 29.9568H63.5104Z" fill="#EDDFD0"/>
<path fill-rule="evenodd" clip-rule="evenodd" d="M64.3574 21.8276H65.4272V27.4822C65.4272 28.0665 65.4789 28.4446 65.5824 28.6337C65.686 28.8228 65.9103 28.9259 66.2208 28.9259C66.5314 28.9259 66.7384 28.8399 66.842 28.6681C66.9455 28.4962 66.9973 28.1525 66.9973 27.6368V21.8276H68.067V27.6368C68.067 28.5134 67.929 29.0977 67.6702 29.4071C67.3423 29.7509 66.8592 29.9227 66.2036 29.9227C65.4789 29.9227 64.9786 29.6993 64.6852 29.2524C64.4782 28.9431 64.3747 28.3587 64.3747 27.4822V21.8276H64.3574Z" fill="#EDDFD0"/>
<path fill-rule="evenodd" clip-rule="evenodd" d="M71.4654 27.4302L71.2238 26.1584C71.0685 25.299 70.9305 24.3709 70.827 23.3741C70.7752 23.8553 70.7235 24.3365 70.6372 24.835C70.5682 25.3334 70.4646 25.849 70.3611 26.399L70.1713 27.4302H71.4654ZM70.4301 21.8101H71.2756L73.001 29.8192H71.9312L71.6206 28.2552H70.0333L69.7227 29.8192H68.6875L70.4301 21.8101Z" fill="#EDDFD0"/>
<path fill-rule="evenodd" clip-rule="evenodd" d="M74.71 25.3682C75.1241 25.3682 75.4347 25.265 75.6072 25.076C75.7798 24.8869 75.866 24.5604 75.866 24.0963C75.866 23.8385 75.8488 23.6323 75.8143 23.4604C75.7798 23.2885 75.728 23.1339 75.6417 23.0307C75.5727 22.9276 75.4692 22.8417 75.3312 22.7901C75.2104 22.7386 75.0724 22.7214 74.8998 22.7214H74.71V25.3853V25.3682ZM73.623 21.8276H75.0551C75.6417 21.8276 76.0903 21.9651 76.3664 22.2401C76.7287 22.6011 76.9185 23.151 76.9185 23.9073C76.9185 24.4744 76.815 24.9385 76.6252 25.2994C76.4354 25.6432 76.1594 25.8666 75.797 25.9353L77.2809 29.8368H76.1766L74.71 25.9181V29.8368H73.623V21.8276Z" fill="#EDDFD0"/>
<path fill-rule="evenodd" clip-rule="evenodd" d="M78.125 21.8271H81.0064V22.7381H79.212V25.2646H80.7993V26.1755H79.212V28.9254H81.0064V29.8363H78.125V21.8271Z" fill="#EDDFD0"/>
<path fill-rule="evenodd" clip-rule="evenodd" d="M83.0769 28.8915C83.7325 28.8915 84.1811 28.6853 84.4054 28.29C84.6297 27.8947 84.7505 27.1212 84.7505 25.9697C84.7505 24.7322 84.647 23.8901 84.4227 23.426C84.1984 22.962 83.8015 22.7385 83.2149 22.7385H83.0769V28.8915ZM81.9899 21.8276H83.3185C83.7325 21.8276 84.0604 21.8792 84.3364 21.9651C84.5952 22.0511 84.8195 22.2057 85.0266 22.4292C85.3371 22.7557 85.5442 23.1854 85.665 23.7182C85.7857 24.2338 85.8548 24.9729 85.8548 25.9353C85.8548 26.8119 85.7857 27.5337 85.6477 28.1009C85.5097 28.6337 85.2854 29.0462 84.9576 29.3212C84.5607 29.6649 83.8706 29.854 82.8526 29.854H81.9727V21.8448L81.9899 21.8276Z" fill="#EDDFD0"/>
<path fill-rule="evenodd" clip-rule="evenodd" d="M55.2812 10.9136H56.3682V18.0118H58.1281V18.9227H55.2812V10.9136Z" fill="#EDDFD0"/>
<path d="M59.8878 10.9136H58.8008V18.9227H59.8878V10.9136Z" fill="#EDDFD0"/>
<path fill-rule="evenodd" clip-rule="evenodd" d="M60.4902 10.9136H61.56L62.0431 13.8697L62.1293 14.4025L62.3019 15.5713C62.3364 15.7603 62.3536 15.9494 62.3709 16.1041C62.3882 16.2587 62.4227 16.4134 62.4399 16.5509L62.4917 16.9462C62.4917 16.9462 62.5089 16.7915 62.5262 16.74C62.5434 16.6884 62.5262 16.6197 62.5434 16.5853L62.6815 15.6572L62.8713 14.4369C62.8885 14.3338 62.9058 14.2307 62.923 14.1275C62.9403 14.0416 62.9575 13.9557 62.9748 13.8697L63.4924 10.9136H64.5104L62.9403 18.9227H62.0776L60.5247 10.9136H60.4902Z" fill="#EDDFD0"/>
</svg>
