<svg width="150" height="79" viewBox="0 0 150 79" fill="none" xmlns="http://www.w3.org/2000/svg">
<g filter="url(#filter0_d_1_354)">
<path d="M90.3676 49.4436V13.14H100.663V18.2875C103.033 15.2396 106.149 12.4626 111.364 12.4626C116.173 12.4626 119.695 14.4946 121.591 18.2197C124.775 14.4268 128.568 12.4626 133.512 12.4626C141.166 12.4626 145.771 17.0683 145.771 25.8056V49.4436H135.476V29.1921C135.476 24.3155 133.309 21.8095 129.448 21.8095C125.588 21.8095 123.217 24.3155 123.217 29.1921V49.4436H112.922V29.1921C112.922 24.3155 110.755 21.8095 106.894 21.8095C103.033 21.8095 100.663 24.3155 100.663 29.1921V49.4436H90.3676Z" fill="#EDDFD0"/>
<path d="M70.1326 9.14363V0H80.9695V9.14363H70.1326ZM70.4035 49.4433V13.1397H80.6985V49.4433H70.4035Z" fill="#EDDFD0"/>
<path d="M49.9652 49.4433V0H60.2603V49.4433H49.9652Z" fill="#EDDFD0"/>
<path d="M24.116 50.1208C16.8688 50.1208 9.68937 47.6825 4 42.535L10.1635 35.1523C14.4982 38.6743 18.9007 40.9094 24.3192 40.9094C28.6539 40.9094 31.16 39.2161 31.16 36.4392V36.3037C31.16 33.6622 29.5344 32.2399 21.61 30.2757C11.9922 27.9051 5.89646 25.1282 5.89646 15.7814V15.6459C5.89646 7.04411 12.7372 1.35474 22.4905 1.35474C29.4667 1.35474 35.2238 3.52212 40.1004 7.38276L34.682 15.2395C30.4149 12.3271 26.4188 10.5661 22.355 10.5661C18.2912 10.5661 16.2592 12.3271 16.2592 14.6977V14.8331C16.2592 18.0165 18.2912 18.897 26.4866 21.0643C36.1043 23.6381 41.5228 27.0246 41.5228 35.2878V35.4232C41.5228 44.8378 34.3433 50.1208 24.116 50.1208Z" fill="#EDDFD0"/>
<path d="M71.8114 65.4326C71.821 65.7004 71.8832 65.9298 71.9979 66.1211C72.1126 66.3028 72.2608 66.451 72.4425 66.5657C72.6338 66.6709 72.8441 66.7474 73.0736 66.7952C73.3127 66.843 73.5565 66.8669 73.8051 66.8669C73.9964 66.8669 74.1971 66.8526 74.4075 66.8239C74.6179 66.7952 74.8091 66.7426 74.9812 66.6661C75.1629 66.5896 75.3111 66.4797 75.4259 66.3362C75.5406 66.1832 75.598 65.992 75.598 65.7625C75.598 65.447 75.4785 65.2079 75.2394 65.0454C75.0004 64.8828 74.6991 64.7537 74.3358 64.6581C73.982 64.5529 73.5947 64.4621 73.174 64.3856C72.7533 64.2995 72.3612 64.1848 71.9979 64.0414C71.6441 63.8884 71.3477 63.678 71.1086 63.4103C70.8696 63.1425 70.7501 62.7696 70.7501 62.2915C70.7501 61.9186 70.8313 61.5983 70.9939 61.3305C71.166 61.0628 71.3812 60.8477 71.6393 60.6851C71.9071 60.513 72.2035 60.3887 72.5286 60.3122C72.8633 60.2261 73.1931 60.1831 73.5183 60.1831C73.939 60.1831 74.3262 60.2214 74.68 60.2978C75.0338 60.3648 75.3446 60.4891 75.6123 60.6708C75.8896 60.8429 76.1095 61.0819 76.2721 61.3879C76.4346 61.6843 76.5303 62.0573 76.559 62.5067H75.3398C75.3207 62.2676 75.2585 62.0716 75.1533 61.9186C75.0482 61.756 74.9143 61.627 74.7517 61.5313C74.5892 61.4357 74.4075 61.3688 74.2067 61.3305C74.0155 61.2827 73.8195 61.2588 73.6187 61.2588C73.437 61.2588 73.2505 61.2732 73.0593 61.3019C72.8776 61.3305 72.7103 61.3831 72.5573 61.4596C72.4043 61.5266 72.28 61.6222 72.1844 61.7465C72.0887 61.8612 72.0409 62.0142 72.0409 62.2055C72.0409 62.4158 72.1126 62.5927 72.2561 62.7362C72.4091 62.87 72.6003 62.9848 72.8298 63.0804C73.0593 63.1664 73.3174 63.2429 73.6043 63.3099C73.8912 63.3672 74.178 63.4294 74.4649 63.4963C74.7709 63.5633 75.0673 63.6445 75.3541 63.7402C75.6506 63.8358 75.9087 63.9649 76.1287 64.1274C76.3582 64.2804 76.5398 64.4764 76.6737 64.7155C76.8171 64.9545 76.8888 65.2509 76.8888 65.6047C76.8888 66.0542 76.7932 66.4271 76.602 66.7235C76.4203 67.0199 76.1765 67.259 75.8705 67.4406C75.5741 67.6223 75.2346 67.7466 74.8521 67.8136C74.4792 67.8901 74.1063 67.9283 73.7334 67.9283C73.3222 67.9283 72.9302 67.8853 72.5573 67.7992C72.1844 67.7132 71.8545 67.5745 71.5676 67.3833C71.2807 67.1825 71.0513 66.9243 70.8791 66.6087C70.707 66.2836 70.6114 65.8916 70.5923 65.4326H71.8114Z" fill="#EDDFD0"/>
<path d="M67.6504 63.3529C67.6313 63.066 67.5643 62.7935 67.4496 62.5354C67.3444 62.2772 67.1962 62.0573 67.005 61.8756C66.8233 61.6843 66.6034 61.5361 66.3452 61.4309C66.0966 61.3162 65.8193 61.2588 65.5133 61.2588C65.1977 61.2588 64.9109 61.3162 64.6527 61.4309C64.4041 61.5361 64.189 61.6843 64.0073 61.8756C63.8256 62.0668 63.6822 62.2915 63.577 62.5497C63.4718 62.7983 63.4097 63.066 63.3905 63.3529H67.6504ZM68.8265 65.4183C68.664 66.2502 68.3054 66.8765 67.7508 67.2972C67.1962 67.7179 66.4982 67.9283 65.6567 67.9283C65.0639 67.9283 64.5475 67.8327 64.1077 67.6414C63.6774 67.4502 63.314 67.1825 63.0176 66.8382C62.7212 66.494 62.4965 66.0828 62.3435 65.6047C62.2001 65.1266 62.1188 64.6055 62.0997 64.0414C62.0997 63.4772 62.1857 62.9609 62.3578 62.4923C62.53 62.0238 62.769 61.6174 63.075 61.2732C63.3905 60.9289 63.7587 60.6612 64.1794 60.47C64.6097 60.2787 65.0782 60.1831 65.585 60.1831C66.2448 60.1831 66.7898 60.3218 67.2201 60.5991C67.66 60.8668 68.009 61.211 68.2671 61.6317C68.5349 62.0525 68.7165 62.5114 68.8122 63.0087C68.9174 63.5059 68.9604 63.9792 68.9413 64.4286H63.3905C63.381 64.7537 63.4192 65.0645 63.5053 65.3609C63.5913 65.6478 63.73 65.9059 63.9212 66.1354C64.1125 66.3554 64.3563 66.5323 64.6527 66.6661C64.9491 66.8 65.2981 66.8669 65.6997 66.8669C66.2161 66.8669 66.6368 66.7474 66.9619 66.5083C67.2966 66.2693 67.5165 65.9059 67.6217 65.4183H68.8265Z" fill="#EDDFD0"/>
<path d="M59.7521 59.0212H58.5329V57.5295H59.7521V59.0212ZM58.5329 60.3551H59.7521V67.7704H58.5329V60.3551Z" fill="#EDDFD0"/>
<path d="M54.7689 60.3552H56.2462V61.431H54.7689V66.035C54.7689 66.1785 54.7784 66.2932 54.7976 66.3793C54.8262 66.4653 54.8741 66.5323 54.941 66.5801C55.0079 66.6279 55.0988 66.6614 55.2135 66.6805C55.3378 66.69 55.4956 66.6948 55.6868 66.6948H56.2462V67.7705H55.3139C54.9984 67.7705 54.7258 67.7514 54.4964 67.7132C54.2764 67.6654 54.0947 67.5841 53.9513 67.4693C53.8175 67.3546 53.7171 67.192 53.6501 66.9817C53.5832 66.7713 53.5497 66.494 53.5497 66.1498V61.431H52.2875V60.3552H53.5497V58.1321H54.7689V60.3552Z" fill="#EDDFD0"/>
<path d="M47.3965 60.3552H48.544V61.9186H48.5727C48.8691 61.3162 49.2324 60.8715 49.6627 60.5847C50.093 60.2978 50.6381 60.1639 51.2978 60.1831V61.4739C50.8102 61.4739 50.3942 61.5409 50.05 61.6747C49.7058 61.8086 49.4285 62.0046 49.2181 62.2628C49.0077 62.521 48.8547 62.8365 48.7591 63.2094C48.6635 63.5728 48.6157 63.9935 48.6157 64.4716V67.7705H47.3965V60.3552Z" fill="#EDDFD0"/>
<path d="M44.0244 63.3529C44.0052 63.066 43.9383 62.7935 43.8236 62.5354C43.7184 62.2772 43.5702 62.0573 43.3789 61.8756C43.1972 61.6843 42.9773 61.5361 42.7191 61.4309C42.4705 61.3162 42.1932 61.2588 41.8873 61.2588C41.5717 61.2588 41.2849 61.3162 41.0267 61.4309C40.7781 61.5361 40.5629 61.6843 40.3812 61.8756C40.1996 62.0668 40.0561 62.2915 39.951 62.5497C39.8458 62.7983 39.7836 63.066 39.7645 63.3529H44.0244ZM45.2005 65.4183C45.0379 66.2502 44.6794 66.8765 44.1248 67.2972C43.5702 67.7179 42.8721 67.9283 42.0307 67.9283C41.4378 67.9283 40.9215 67.8327 40.4816 67.6414C40.0514 67.4502 39.688 67.1825 39.3916 66.8382C39.0952 66.494 38.8705 66.0828 38.7175 65.6047C38.574 65.1266 38.4928 64.6055 38.4736 64.0414C38.4736 63.4772 38.5597 62.9609 38.7318 62.4923C38.9039 62.0238 39.143 61.6174 39.449 61.2732C39.7645 60.9289 40.1326 60.6612 40.5534 60.47C40.9837 60.2787 41.4522 60.1831 41.959 60.1831C42.6187 60.1831 43.1638 60.3218 43.5941 60.5991C44.0339 60.8668 44.3829 61.211 44.6411 61.6317C44.9088 62.0525 45.0905 62.5114 45.1861 63.0087C45.2913 63.5059 45.3343 63.9792 45.3152 64.4286H39.7645C39.7549 64.7537 39.7932 65.0645 39.8792 65.3609C39.9653 65.6478 40.104 65.9059 40.2952 66.1354C40.4864 66.3554 40.7303 66.5323 41.0267 66.6661C41.3231 66.8 41.6721 66.8669 42.0737 66.8669C42.5901 66.8669 43.0108 66.7474 43.3359 66.5083C43.6706 66.2693 43.8905 65.9059 43.9957 65.4183H45.2005Z" fill="#EDDFD0"/>
<path d="M29.5556 60.3552H30.7748V61.3592H30.8034C31.0042 60.9481 31.3198 60.6516 31.7501 60.47C32.1804 60.2787 32.6537 60.1831 33.17 60.1831C33.7437 60.1831 34.241 60.2883 34.6617 60.4987C35.092 60.709 35.4458 60.9959 35.7231 61.3592C36.0099 61.713 36.2251 62.1242 36.3685 62.5927C36.5119 63.0613 36.5836 63.5585 36.5836 64.0844C36.5836 64.6103 36.5119 65.1075 36.3685 65.5761C36.2346 66.0446 36.0243 66.4558 35.7374 66.8096C35.4601 67.1538 35.1063 67.4263 34.676 67.6271C34.2553 67.8279 33.7629 67.9283 33.1987 67.9283C33.017 67.9283 32.8115 67.9092 32.582 67.8709C32.362 67.8327 32.1421 67.7705 31.9222 67.6845C31.7023 67.5984 31.4919 67.4837 31.2911 67.3402C31.0999 67.1872 30.9373 67.0008 30.8034 66.7809H30.7748V70.5961H29.5556V60.3552ZM35.2928 63.9983C35.2928 63.6541 35.245 63.3194 35.1494 62.9943C35.0633 62.6597 34.9246 62.3632 34.7334 62.1051C34.5517 61.8469 34.3127 61.6413 34.0163 61.4883C33.7294 61.3353 33.39 61.2588 32.9979 61.2588C32.5867 61.2588 32.2377 61.3401 31.9509 61.5027C31.664 61.6652 31.4297 61.8804 31.2481 62.1481C31.0664 62.4063 30.9325 62.7027 30.8465 63.0374C30.77 63.372 30.7317 63.7115 30.7317 64.0557C30.7317 64.4191 30.7748 64.7729 30.8608 65.1171C30.9469 65.4518 31.0807 65.7482 31.2624 66.0063C31.4537 66.2645 31.6975 66.4749 31.9939 66.6374C32.2903 66.7904 32.6489 66.8669 33.0696 66.8669C33.4904 66.8669 33.8394 66.7856 34.1167 66.6231C34.4035 66.4605 34.633 66.2454 34.8051 65.9777C34.9772 65.7099 35.1015 65.4039 35.178 65.0597C35.2545 64.7155 35.2928 64.3617 35.2928 63.9983Z" fill="#EDDFD0"/>
<path d="M21.3052 64.07C21.3052 64.5195 21.3626 64.9211 21.4773 65.2749C21.6016 65.6191 21.769 65.9107 21.9793 66.1498C22.1897 66.3793 22.4335 66.5562 22.7108 66.6805C22.9977 66.8048 23.2989 66.8669 23.6144 66.8669C23.93 66.8669 24.2264 66.8048 24.5037 66.6805C24.7905 66.5562 25.0392 66.3793 25.2495 66.1498C25.4599 65.9107 25.6224 65.6191 25.7372 65.2749C25.8615 64.9211 25.9236 64.5195 25.9236 64.07C25.9236 63.6206 25.8615 63.2238 25.7372 62.8796C25.6224 62.5258 25.4599 62.2294 25.2495 61.9903C25.0392 61.7513 24.7905 61.5696 24.5037 61.4453C24.2264 61.321 23.93 61.2588 23.6144 61.2588C23.2989 61.2588 22.9977 61.321 22.7108 61.4453C22.4335 61.5696 22.1897 61.7513 21.9793 61.9903C21.769 62.2294 21.6016 62.5258 21.4773 62.8796C21.3626 63.2238 21.3052 63.6206 21.3052 64.07ZM20.0143 64.07C20.0143 63.525 20.0908 63.0182 20.2438 62.5497C20.3968 62.0716 20.6263 61.6604 20.9323 61.3162C21.2383 60.9624 21.616 60.6851 22.0654 60.4843C22.5148 60.2835 23.0311 60.1831 23.6144 60.1831C24.2073 60.1831 24.7236 60.2835 25.1635 60.4843C25.6129 60.6851 25.9906 60.9624 26.2966 61.3162C26.6025 61.6604 26.832 62.0716 26.985 62.5497C27.138 63.0182 27.2145 63.525 27.2145 64.07C27.2145 64.6151 27.138 65.1219 26.985 65.5904C26.832 66.0589 26.6025 66.4701 26.2966 66.8239C25.9906 67.1681 25.6129 67.4406 25.1635 67.6414C24.7236 67.8327 24.2073 67.9283 23.6144 67.9283C23.0311 67.9283 22.5148 67.8327 22.0654 67.6414C21.616 67.4406 21.2383 67.1681 20.9323 66.8239C20.6263 66.4701 20.3968 66.0589 20.2438 65.5904C20.0908 65.1219 20.0143 64.6151 20.0143 64.07Z" fill="#EDDFD0"/>
<path d="M14.9882 60.3552H16.1356V61.9186H16.1643C16.4607 61.3162 16.8241 60.8715 17.2543 60.5847C17.6846 60.2978 18.2297 60.1639 18.8894 60.1831V61.4739C18.4018 61.4739 17.9858 61.5409 17.6416 61.6747C17.2974 61.8086 17.0201 62.0046 16.8097 62.2628C16.5994 62.521 16.4464 62.8365 16.3507 63.2094C16.2551 63.5728 16.2073 63.9935 16.2073 64.4716V67.7705H14.9882V60.3552Z" fill="#EDDFD0"/>
<path d="M6.4335 62.4348H9.10129C9.87581 62.4444 10.44 62.2866 10.7938 61.9615C11.1571 61.6364 11.3388 61.1679 11.3388 60.5559C11.3388 59.9439 11.1571 59.4802 10.7938 59.1646C10.44 58.8395 9.87581 58.677 9.10129 58.677H6.4335V62.4348ZM5.07092 57.5295H9.56027C10.593 57.5295 11.3723 57.7973 11.8982 58.3327C12.4336 58.8587 12.7014 59.5997 12.7014 60.5559C12.7014 61.5121 12.4336 62.2579 11.8982 62.7934C11.3723 63.3289 10.593 63.5918 9.56027 63.5823H6.4335V67.7704H5.07092V57.5295Z" fill="#EDDFD0"/>
</g>
<defs>
<filter id="filter0_d_1_354" x="0" y="0" width="149.771" height="78.5961" filterUnits="userSpaceOnUse" color-interpolation-filters="sRGB">
<feFlood flood-opacity="0" result="BackgroundImageFix"/>
<feColorMatrix in="SourceAlpha" type="matrix" values="0 0 0 0 0 0 0 0 0 0 0 0 0 0 0 0 0 0 127 0" result="hardAlpha"/>
<feOffset dy="4"/>
<feGaussianBlur stdDeviation="2"/>
<feComposite in2="hardAlpha" operator="out"/>
<feColorMatrix type="matrix" values="0 0 0 0 0 0 0 0 0 0 0 0 0 0 0 0 0 0 0.25 0"/>
<feBlend mode="normal" in2="BackgroundImageFix" result="effect1_dropShadow_1_354"/>
<feBlend mode="normal" in="SourceGraphic" in2="effect1_dropShadow_1_354" result="shape"/>
</filter>
</defs>
</svg>
