<svg width="77" height="38" viewBox="0 0 77 38" fill="none" xmlns="http://www.w3.org/2000/svg">
<path d="M46.4893 26.6141V7.07283H52.0308V9.8436C53.3068 8.20301 54.9839 6.70825 57.7911 6.70825C60.3796 6.70825 62.2754 7.80198 63.2962 9.80715C65.0097 7.76552 67.0513 6.70825 69.7127 6.70825C73.8325 6.70825 76.3116 9.18737 76.3116 13.8904V26.6141H70.77V15.7133C70.77 13.0883 69.6034 11.7394 67.5253 11.7394C65.4472 11.7394 64.1712 13.0883 64.1712 15.7133V26.6141H58.6296V15.7133C58.6296 13.0883 57.463 11.7394 55.3849 11.7394C53.3068 11.7394 52.0308 13.0883 52.0308 15.7133V26.6141H46.4893Z" fill="#827161"/>
<path d="M35.5977 4.92177V0H41.4309V4.92177H35.5977ZM35.7435 26.614V7.07277H41.285V26.614H35.7435Z" fill="#827161"/>
<path d="M24.7417 26.614V0H30.2833V26.614H24.7417Z" fill="#827161"/>
<path d="M10.8279 26.9787C6.92694 26.9787 3.06244 25.6662 0 22.8955L3.31764 18.9216C5.65093 20.8174 8.02067 22.0205 10.9373 22.0205C13.2706 22.0205 14.6195 21.109 14.6195 19.6143V19.5414C14.6195 18.1195 13.7445 17.3539 9.47897 16.2966C4.302 15.0206 1.02081 13.5259 1.02081 8.49472V8.4218C1.02081 3.79169 4.70303 0.729248 9.95292 0.729248C13.7081 0.729248 16.807 1.89589 19.4319 3.97397L16.5153 8.20306C14.2185 6.63538 12.0675 5.68748 9.88001 5.68748C7.69255 5.68748 6.59882 6.63538 6.59882 7.9114V7.98431C6.59882 9.69782 7.69255 10.1718 12.1039 11.3384C17.2809 12.7238 20.1975 14.5467 20.1975 18.9945V19.0674C20.1975 24.135 16.333 26.9787 10.8279 26.9787Z" fill="#827161"/>
<path d="M36.5015 35.2207C36.5066 35.3648 36.5401 35.4883 36.6018 35.5913C36.6636 35.6891 36.7434 35.7688 36.8411 35.8306C36.9441 35.8872 37.0573 35.9284 37.1808 35.9541C37.3095 35.9799 37.4408 35.9927 37.5746 35.9927C37.6775 35.9927 37.7856 35.985 37.8989 35.9696C38.0121 35.9541 38.115 35.9258 38.2077 35.8847C38.3055 35.8435 38.3852 35.7843 38.447 35.7071C38.5088 35.6247 38.5396 35.5218 38.5396 35.3983C38.5396 35.2284 38.4753 35.0997 38.3466 35.0122C38.218 34.9247 38.0558 34.8553 37.8602 34.8038C37.6698 34.7472 37.4614 34.6983 37.2349 34.6571C37.0084 34.6108 36.7974 34.549 36.6018 34.4718C36.4114 34.3895 36.2518 34.2762 36.1232 34.1321C35.9945 33.988 35.9301 33.7873 35.9301 33.5299C35.9301 33.3292 35.9739 33.1568 36.0614 33.0127C36.154 32.8685 36.2698 32.7527 36.4088 32.6652C36.5529 32.5726 36.7125 32.5057 36.8875 32.4645C37.0676 32.4182 37.2452 32.395 37.4202 32.395C37.6467 32.395 37.8551 32.4156 38.0455 32.4568C38.236 32.4928 38.4033 32.5597 38.5474 32.6575C38.6966 32.7502 38.815 32.8788 38.9025 33.0435C38.99 33.2031 39.0415 33.4038 39.0569 33.6457H38.4007C38.3904 33.5171 38.3569 33.4115 38.3003 33.3292C38.2437 33.2417 38.1716 33.1722 38.0841 33.1207C37.9966 33.0693 37.8989 33.0332 37.7908 33.0127C37.6878 32.9869 37.5823 32.9741 37.4742 32.9741C37.3764 32.9741 37.2761 32.9818 37.1731 32.9972C37.0753 33.0127 36.9853 33.041 36.9029 33.0821C36.8206 33.1182 36.7537 33.1696 36.7022 33.2365C36.6507 33.2983 36.625 33.3807 36.625 33.4836C36.625 33.5968 36.6636 33.6921 36.7408 33.7693C36.8231 33.8413 36.9261 33.9031 37.0496 33.9545C37.1731 34.0009 37.3121 34.042 37.4665 34.0781C37.6209 34.109 37.7753 34.1424 37.9297 34.1784C38.0944 34.2145 38.254 34.2582 38.4084 34.3097C38.568 34.3612 38.7069 34.4306 38.8253 34.5181C38.9488 34.6005 39.0466 34.706 39.1187 34.8347C39.1959 34.9634 39.2345 35.1229 39.2345 35.3133C39.2345 35.5552 39.183 35.756 39.0801 35.9155C38.9823 36.0751 38.851 36.2038 38.6863 36.3016C38.5268 36.3994 38.3441 36.4663 38.1382 36.5023C37.9375 36.5435 37.7367 36.5641 37.536 36.5641C37.3147 36.5641 37.1036 36.5409 36.9029 36.4946C36.7022 36.4482 36.5246 36.3736 36.3702 36.2707C36.2158 36.1626 36.0923 36.0236 35.9996 35.8538C35.907 35.6788 35.8555 35.4678 35.8452 35.2207H36.5015Z" fill="#827161"/>
<path d="M34.2617 34.1012C34.2514 33.9468 34.2154 33.8001 34.1536 33.6612C34.097 33.5222 34.0173 33.4038 33.9143 33.306C33.8165 33.2031 33.6981 33.1233 33.5592 33.0667C33.4254 33.0049 33.2761 32.9741 33.1114 32.9741C32.9415 32.9741 32.7871 33.0049 32.6482 33.0667C32.5143 33.1233 32.3985 33.2031 32.3007 33.306C32.2029 33.409 32.1257 33.5299 32.0691 33.6689C32.0125 33.8027 31.9791 33.9468 31.9688 34.1012H34.2617ZM34.8948 35.213C34.8073 35.6608 34.6143 35.9979 34.3158 36.2244C34.0173 36.4508 33.6415 36.5641 33.1886 36.5641C32.8695 36.5641 32.5915 36.5126 32.3548 36.4096C32.1232 36.3067 31.9276 36.1626 31.768 35.9773C31.6085 35.792 31.4875 35.5707 31.4052 35.3133C31.328 35.056 31.2842 34.7755 31.2739 34.4718C31.2739 34.1681 31.3202 33.8902 31.4129 33.638C31.5055 33.3858 31.6342 33.1671 31.7989 32.9818C31.9688 32.7965 32.1669 32.6524 32.3934 32.5494C32.625 32.4465 32.8772 32.395 33.15 32.395C33.5051 32.395 33.7985 32.4697 34.0301 32.6189C34.2669 32.763 34.4547 32.9483 34.5937 33.1748C34.7378 33.4012 34.8356 33.6483 34.8871 33.9159C34.9437 34.1836 34.9669 34.4384 34.9566 34.6803H31.9688C31.9636 34.8553 31.9842 35.0225 32.0305 35.1821C32.0769 35.3365 32.1515 35.4755 32.2544 35.599C32.3574 35.7174 32.4886 35.8126 32.6482 35.8847C32.8077 35.9567 32.9956 35.9927 33.2118 35.9927C33.4897 35.9927 33.7162 35.9284 33.8912 35.7997C34.0713 35.6711 34.1897 35.4755 34.2463 35.213H34.8948Z" fill="#827161"/>
<path d="M30.0102 31.7695H29.354V30.9666H30.0102V31.7695ZM29.354 32.4875H30.0102V36.4789H29.354V32.4875Z" fill="#827161"/>
<path d="M27.3278 32.4877H28.123V33.0667H27.3278V35.545C27.3278 35.6222 27.333 35.6839 27.3433 35.7303C27.3587 35.7766 27.3844 35.8126 27.4205 35.8384C27.4565 35.8641 27.5054 35.8821 27.5672 35.8924C27.6341 35.8975 27.719 35.9001 27.8219 35.9001H28.123V36.4791H27.6212C27.4514 36.4791 27.3047 36.4689 27.1811 36.4483C27.0628 36.4225 26.965 36.3788 26.8878 36.317C26.8157 36.2553 26.7617 36.1678 26.7256 36.0545C26.6896 35.9413 26.6716 35.792 26.6716 35.6067V33.0667H25.9922V32.4877H26.6716V31.291H27.3278V32.4877Z" fill="#827161"/>
<path d="M23.3594 32.4877H23.977V33.3292H23.9925C24.152 33.0049 24.3476 32.7656 24.5792 32.6112C24.8108 32.4568 25.1042 32.3847 25.4593 32.395V33.0898C25.1968 33.0898 24.9729 33.1259 24.7877 33.1979C24.6024 33.27 24.4531 33.3755 24.3399 33.5145C24.2266 33.6534 24.1443 33.8233 24.0928 34.024C24.0413 34.2196 24.0156 34.4461 24.0156 34.7034V36.4791H23.3594V32.4877Z" fill="#827161"/>
<path d="M21.5444 34.1012C21.5342 33.9468 21.4981 33.8001 21.4364 33.6612C21.3797 33.5222 21.3 33.4038 21.197 33.306C21.0992 33.2031 20.9809 33.1233 20.8419 33.0667C20.7081 33.0049 20.5588 32.9741 20.3941 32.9741C20.2243 32.9741 20.0698 33.0049 19.9309 33.0667C19.7971 33.1233 19.6813 33.2031 19.5835 33.306C19.4857 33.409 19.4085 33.5299 19.3518 33.6689C19.2952 33.8027 19.2618 33.9468 19.2515 34.1012H21.5444ZM22.1775 35.213C22.09 35.6608 21.897 35.9979 21.5985 36.2244C21.3 36.4508 20.9242 36.5641 20.4713 36.5641C20.1522 36.5641 19.8743 36.5126 19.6375 36.4096C19.4059 36.3067 19.2103 36.1626 19.0507 35.9773C18.8912 35.792 18.7702 35.5707 18.6879 35.3133C18.6107 35.056 18.5669 34.7755 18.5566 34.4718C18.5566 34.1681 18.603 33.8902 18.6956 33.638C18.7883 33.3858 18.9169 33.1671 19.0816 32.9818C19.2515 32.7965 19.4496 32.6524 19.6761 32.5494C19.9077 32.4465 20.1599 32.395 20.4327 32.395C20.7878 32.395 21.0812 32.4697 21.3128 32.6189C21.5496 32.763 21.7375 32.9483 21.8764 33.1748C22.0205 33.4012 22.1183 33.6483 22.1698 33.9159C22.2264 34.1836 22.2496 34.4384 22.2393 34.6803H19.2515C19.2463 34.8553 19.2669 35.0225 19.3132 35.1821C19.3596 35.3365 19.4342 35.4755 19.5371 35.599C19.6401 35.7174 19.7713 35.8126 19.9309 35.8847C20.0904 35.9567 20.2783 35.9927 20.4945 35.9927C20.7724 35.9927 20.9989 35.9284 21.1739 35.7997C21.354 35.6711 21.4724 35.4755 21.529 35.213H22.1775Z" fill="#827161"/>
<path d="M13.7563 32.4877H14.4126V33.0281H14.428C14.5361 32.8068 14.706 32.6472 14.9376 32.5494C15.1692 32.4465 15.424 32.395 15.7019 32.395C16.0107 32.395 16.2784 32.4516 16.5048 32.5649C16.7364 32.6781 16.9269 32.8325 17.0761 33.0281C17.2305 33.2185 17.3463 33.4399 17.4236 33.6921C17.5008 33.9443 17.5394 34.2119 17.5394 34.495C17.5394 34.7781 17.5008 35.0457 17.4236 35.2979C17.3515 35.5501 17.2383 35.7714 17.0839 35.9619C16.9346 36.1471 16.7442 36.2938 16.5125 36.4019C16.2861 36.51 16.021 36.5641 15.7173 36.5641C15.6195 36.5641 15.5089 36.5538 15.3854 36.5332C15.267 36.5126 15.1486 36.4791 15.0302 36.4328C14.9118 36.3865 14.7986 36.3247 14.6905 36.2475C14.5876 36.1652 14.5001 36.0648 14.428 35.9464H14.4126V38.0001H13.7563V32.4877ZM16.8445 34.4487C16.8445 34.2634 16.8188 34.0832 16.7673 33.9082C16.721 33.7281 16.6464 33.5685 16.5434 33.4296C16.4456 33.2906 16.317 33.1799 16.1574 33.0976C16.003 33.0152 15.8203 32.9741 15.6093 32.9741C15.3879 32.9741 15.2001 33.0178 15.0457 33.1053C14.8913 33.1928 14.7652 33.3086 14.6674 33.4527C14.5696 33.5917 14.4975 33.7512 14.4512 33.9314C14.41 34.1115 14.3894 34.2942 14.3894 34.4795C14.3894 34.6751 14.4126 34.8656 14.4589 35.0508C14.5052 35.231 14.5773 35.3905 14.6751 35.5295C14.778 35.6685 14.9093 35.7817 15.0688 35.8692C15.2284 35.9516 15.4214 35.9927 15.6479 35.9927C15.8743 35.9927 16.0622 35.949 16.2114 35.8615C16.3659 35.774 16.4894 35.6582 16.582 35.5141C16.6747 35.37 16.7416 35.2053 16.7828 35.02C16.8239 34.8347 16.8445 34.6442 16.8445 34.4487Z" fill="#827161"/>
<path d="M9.31496 34.4873C9.31496 34.7292 9.34584 34.9453 9.4076 35.1358C9.47451 35.3211 9.56458 35.478 9.67782 35.6067C9.79105 35.7302 9.9223 35.8255 10.0716 35.8924C10.226 35.9593 10.3881 35.9927 10.5579 35.9927C10.7278 35.9927 10.8874 35.9593 11.0366 35.8924C11.191 35.8255 11.3248 35.7302 11.4381 35.6067C11.5513 35.478 11.6388 35.3211 11.7006 35.1358C11.7675 34.9453 11.8009 34.7292 11.8009 34.4873C11.8009 34.2454 11.7675 34.0318 11.7006 33.8465C11.6388 33.656 11.5513 33.4965 11.4381 33.3678C11.3248 33.2391 11.191 33.1413 11.0366 33.0744C10.8874 33.0075 10.7278 32.9741 10.5579 32.9741C10.3881 32.9741 10.226 33.0075 10.0716 33.0744C9.9223 33.1413 9.79105 33.2391 9.67782 33.3678C9.56458 33.4965 9.47451 33.656 9.4076 33.8465C9.34584 34.0318 9.31496 34.2454 9.31496 34.4873ZM8.62012 34.4873C8.62012 34.1939 8.66129 33.9211 8.74364 33.6689C8.826 33.4115 8.94952 33.1902 9.11422 33.0049C9.27893 32.8145 9.48223 32.6652 9.72414 32.5571C9.96605 32.4491 10.244 32.395 10.5579 32.395C10.8771 32.395 11.155 32.4491 11.3918 32.5571C11.6337 32.6652 11.837 32.8145 12.0017 33.0049C12.1664 33.1902 12.2899 33.4115 12.3722 33.6689C12.4546 33.9211 12.4958 34.1939 12.4958 34.4873C12.4958 34.7806 12.4546 35.0534 12.3722 35.3056C12.2899 35.5578 12.1664 35.7791 12.0017 35.9696C11.837 36.1549 11.6337 36.3016 11.3918 36.4096C11.155 36.5126 10.8771 36.5641 10.5579 36.5641C10.244 36.5641 9.96605 36.5126 9.72414 36.4096C9.48223 36.3016 9.27893 36.1549 9.11422 35.9696C8.94952 35.7791 8.826 35.5578 8.74364 35.3056C8.66129 35.0534 8.62012 34.7806 8.62012 34.4873Z" fill="#827161"/>
<path d="M5.91504 32.4877H6.53267V33.3292H6.54811C6.70767 33.0049 6.90325 32.7656 7.13487 32.6112C7.36648 32.4568 7.65986 32.3847 8.015 32.395V33.0898C7.7525 33.0898 7.52861 33.1259 7.34332 33.1979C7.15803 33.27 7.00877 33.3755 6.89553 33.5145C6.7823 33.6534 6.69995 33.8233 6.64848 34.024C6.59701 34.2196 6.57128 34.4461 6.57128 34.7034V36.4791H5.91504V32.4877Z" fill="#827161"/>
<path d="M1.3101 33.6069H2.7461C3.16301 33.6121 3.46668 33.5272 3.65711 33.3522C3.8527 33.1772 3.95049 32.925 3.95049 32.5956C3.95049 32.2662 3.8527 32.0165 3.65711 31.8467C3.46668 31.6717 3.16301 31.5842 2.7461 31.5842H1.3101V33.6069ZM0.57666 30.9666H2.99316C3.54903 30.9666 3.9685 31.1107 4.25159 31.3989C4.53981 31.682 4.68393 32.0809 4.68393 32.5956C4.68393 33.1103 4.53981 33.5117 4.25159 33.8C3.9685 34.0882 3.54903 34.2297 2.99316 34.2246H1.3101V36.4789H0.57666V30.9666Z" fill="#827161"/>
</svg>
